<?xml version="1.0" encoding="UTF-8" standalone="no"?>
<!-- Created with Inkscape (http://www.inkscape.org/) -->

<svg
   xmlns:osb="http://www.openswatchbook.org/uri/2009/osb"
   xmlns:dc="http://purl.org/dc/elements/1.1/"
   xmlns:cc="http://creativecommons.org/ns#"
   xmlns:rdf="http://www.w3.org/1999/02/22-rdf-syntax-ns#"
   xmlns:svg="http://www.w3.org/2000/svg"
   xmlns="http://www.w3.org/2000/svg"
   xmlns:xlink="http://www.w3.org/1999/xlink"
   xmlns:sodipodi="http://sodipodi.sourceforge.net/DTD/sodipodi-0.dtd"
   xmlns:inkscape="http://www.inkscape.org/namespaces/inkscape"
   id="svg4956"
   version="1.1"
   inkscape:version="0.91 r13725"
   width="424.79999"
   height="261"
   viewBox="0 0 424.79999 261"
   sodipodi:docname="logo.svg"
   inkscape:export-filename="/home/ryan/proj/dealers-choice/front-end/src/images/logo.png"
   inkscape:export-xdpi="90"
   inkscape:export-ydpi="90">
  <metadata
     id="metadata4962">
    <rdf:RDF>
      <cc:Work
         rdf:about="">
        <dc:format>image/svg+xml</dc:format>
        <dc:type
           rdf:resource="http://purl.org/dc/dcmitype/StillImage" />
        <dc:title></dc:title>
      </cc:Work>
    </rdf:RDF>
  </metadata>
  <defs
     id="defs4960">
    <linearGradient
       id="linearGradient7567"
       inkscape:collect="always">
      <stop
         id="stop7569"
         offset="0"
         style="stop-color:#000000;stop-opacity:1;" />
      <stop
         id="stop7571"
         offset="1"
         style="stop-color:#3d3d3d;stop-opacity:1" />
    </linearGradient>
    <linearGradient
       inkscape:collect="always"
       id="linearGradient7551">
      <stop
         style="stop-color:#000000;stop-opacity:1;"
         offset="0"
         id="stop7553" />
      <stop
         style="stop-color:#3d3d3d;stop-opacity:1"
         offset="1"
         id="stop7555" />
    </linearGradient>
    <linearGradient
       inkscape:collect="always"
       id="linearGradient7207">
      <stop
         style="stop-color:#ffffff;stop-opacity:1;"
         offset="0"
         id="stop7209" />
      <stop
         style="stop-color:#ffffff;stop-opacity:0;"
         offset="1"
         id="stop7211" />
    </linearGradient>
    <linearGradient
       id="linearGradient6967"
       osb:paint="solid">
      <stop
         style="stop-color:#00ff00;stop-opacity:1;"
         offset="0"
         id="stop6969" />
    </linearGradient>
    <linearGradient
       inkscape:collect="always"
       xlink:href="#linearGradient7567"
       id="linearGradient7557"
       x1="196.07193"
       y1="228.88232"
       x2="196.07193"
       y2="125.99829"
       gradientUnits="userSpaceOnUse" />
    <linearGradient
       inkscape:collect="always"
       xlink:href="#linearGradient7551"
       id="linearGradient7559"
       x1="241.34866"
       y1="175.28877"
       x2="241.34866"
       y2="53.312851"
       gradientUnits="userSpaceOnUse" />
    <linearGradient
       inkscape:collect="always"
       xlink:href="#linearGradient7207"
       id="linearGradient7601"
       gradientUnits="userSpaceOnUse"
       x1="196.07193"
       y1="228.88232"
       x2="196.07193"
       y2="125.99829" />
    <linearGradient
       inkscape:collect="always"
       xlink:href="#linearGradient7207"
       id="linearGradient7608"
       gradientUnits="userSpaceOnUse"
       x1="241.34866"
       y1="175.28877"
       x2="241.34866"
       y2="53.312851" />
  </defs>
  <sodipodi:namedview
     pagecolor="#ffffff"
     bordercolor="#666666"
     borderopacity="1"
     objecttolerance="10"
     gridtolerance="10"
     guidetolerance="10"
     inkscape:pageopacity="0"
     inkscape:pageshadow="2"
     inkscape:window-width="1615"
     inkscape:window-height="1026"
     id="namedview4958"
     showgrid="false"
     inkscape:zoom="2"
     inkscape:cx="167.85742"
     inkscape:cy="159.50223"
     inkscape:window-x="65"
     inkscape:window-y="24"
     inkscape:window-maximized="1"
     inkscape:current-layer="layer1" />
  <g
     inkscape:groupmode="layer"
     id="layer1"
     inkscape:label="Choice"
     style="display:inline">
    <path
       style="fill:url(#linearGradient7557);fill-opacity:1;stroke:none;stroke-width:3;stroke-miterlimit:4;stroke-dasharray:none;stroke-opacity:1"
       d="m 118.51367,125.94336 c -8.77648,0.46244 -16.98089,11.43154 -10.73437,19.20703 2.51283,3.43721 7.7641,-0.66828 10.21289,1.90625 1.64342,16.59174 1.33087,33.24183 -2.32813,49.51758 l 19.35938,0 c 0.56155,-10.33711 -1.59397,-21.19505 0.87109,-31.26172 5.71596,-2.08054 5.15833,5.41769 5.0293,8.9375 0.0768,13.51792 -4.1009,27.1425 -1.57227,40.58008 1.78488,10.40582 13.71627,17.40368 23.47852,12.84765 8.65063,-3.51812 14.41306,-15.89334 8.12304,-23.79687 -3.70439,-2.28721 -10.06628,1.03097 -11.7539,-4.48242 -4.45519,-14.12047 2.9116,-29.16744 -1.11328,-43.30469 -1.84812,-7.12307 -11.00278,-12.32922 -17.22071,-6.97461 -1.13697,1.1298 -4.73085,4.95908 -4.58007,1 -0.11019,-8.77644 -1.98071,-19.99485 -11.51563,-23.29492 -1.31346,-0.49333 -2.70117,-0.79067 -4.10156,-0.88086 z m 93.54492,15.66797 c 3.00203,3.20676 11.31086,6.14155 13.04688,0.44531 1.26769,-3.92153 6.7087,-8.60864 2.45117,-12.68164 -10.25897,-11.53631 -22.56642,5.22483 -15.49805,12.23633 z M 83.34375,126.82812 c -13.151673,0.28504 -21.407197,13.19107 -24.96875,24.51758 -4.915969,13.18842 -2.818241,29.62391 7.326172,39.79688 10.122887,9.53641 29.279109,8.52915 37.009768,-3.44336 4.84715,-7.38946 2.66293,-18.48156 -5.628909,-22.34375 -2.689353,-2.48698 -8.371121,-2.06401 -8.238281,2.42383 0.149147,5.92117 -9.413281,4.89411 -9.796875,-0.49805 -1.95767,-7.56679 -1.99153,-16.12173 2.398437,-22.7793 1.897036,-3.6735 9.262252,-5.7561 10.052735,-0.39843 1.314117,5.46469 -7.008519,1.75288 -7.023438,6.83007 0.417249,6.38586 9.196517,10.74908 14.44336,6.5625 6.613701,-3.64018 5.184281,-12.30507 4.050781,-18.27929 -0.88674,-3.55836 0.99657,-9.09636 -1.24414,-11.09375 -6.121712,-0.44334 -12.235477,-1.27703 -18.38086,-1.29493 z m 102.21875,20.07227 c -0.26332,-0.005 -0.52769,-8.3e-4 -0.79102,0.0117 -18.21556,1.27878 -28.72294,24.47091 -19.63086,39.73828 4.4845,8.59608 14.92854,15.1811 24.5918,10.83789 14.02358,-4.02263 20.74222,-23.52037 11.08008,-34.75976 -1.90587,-2.45178 -5.10757,-3.30942 -7.88672,-3.74024 0.65222,-3.5383 2.65573,-8.8513 -2.06836,-10.71484 -1.62309,-0.88658 -3.45166,-1.34059 -5.29492,-1.37305 z m 30.87695,1.17773 c -4.59652,-0.028 -10.87617,4.53499 -9.07812,9.46094 1.15491,1.44489 3.8927,0.99671 2.94531,3.69532 0.91347,10.12354 -5.5752,20.91475 -0.51367,30.51953 3.55681,6.93561 13.81631,9.14819 19.16015,2.98242 3.10843,-3.18902 6.84151,-10.50549 1.91211,-13.60938 -2.31936,0.25712 -3.2538,-1.33747 -2.89257,-3.61718 -0.94477,-8.55984 3.55293,-19.42194 -3.26954,-26.47657 -2.21773,-2.02999 -5.26978,-3.07955 -8.26367,-2.95508 z m 87.15625,0.54493 c -19.59572,0.5622 -32.44753,26.52013 -20.53125,42.27734 6.51685,9.24803 19.3112,9.31919 29.23633,6.96094 6.35253,-1.99285 13.04565,-10.17294 7.76563,-16.40039 -2.83225,-3.16196 -9.11947,-5.88997 -11.63282,-0.88282 -3.65876,3.96839 -10.41347,-1.68185 -8.09765,-5.90624 6.72518,0.65494 15.34907,1.52333 19.55664,-5.20313 5.98851,-7.02097 -0.20516,-17.09304 -7.97461,-19.31445 -2.6386,-1.04559 -5.48154,-1.59328 -8.32227,-1.53125 z m -47.69726,0.60547 c -11.66107,0.07 -17.95724,12.46381 -20.2168,22.4082 -3.68956,13.32584 7.15069,27.80804 20.91797,28.23047 9.38042,1.17419 21.30546,-6.26326 19.13867,-16.75977 -0.80263,-4.4235 -5.74123,-10.39997 -10.51172,-7.5957 -1.9323,4.42654 -10.28691,3.57143 -9.86523,-1.88672 -0.13202,-4.89245 -2.84057,-13.24879 4.01172,-14.78906 4.21484,-0.51903 4.20388,5.90526 1.11914,7.24023 -1.19603,5.16321 6.39738,5.19529 9.44531,3.22266 6.33033,-3.89142 3.97974,-12.67337 3.36133,-18.62305 -5.79368,-0.50271 -11.57514,-1.41842 -17.40039,-1.44726 z m 46.41601,9.60937 c 0.21154,-0.0186 0.42985,-0.0139 0.6543,0.0156 5.61634,0.2269 2.19767,9.89562 -2.64258,7.37109 -2.8094,-1.70729 -1.18484,-7.10765 1.98828,-7.38672 z m -118.73633,0.0742 c 0.34302,-0.003 0.6867,0.0143 1.02735,0.0371 4.71648,-0.12561 0.49742,5.23867 -0.20899,7.58789 -0.74813,4.1019 6.57186,4.18318 3.9961,9.01172 -3.48761,2.51361 -8.48504,-0.18593 -8.07813,-4.54492 0.2608,-3.70541 -1.67693,-9.88186 2.24024,-12.00586 0.33806,-0.0586 0.68042,-0.0827 1.02343,-0.0859 z"
       id="path5506"
       inkscape:connector-curvature="0"
       sodipodi:nodetypes="ccccccccccccccccccccccccccccccccccccccccccccccccccccccccccccccccccccccccccccscccccs" />
    <path
       style="opacity:0.43999999;fill:url(#linearGradient7601);fill-opacity:1;stroke:none;stroke-width:3;stroke-miterlimit:4;stroke-dasharray:none;stroke-opacity:1"
       d="m 219.8125,125.43359 c -7.45814,0.17586 -13.05518,10.91911 -7.75391,16.17774 3.00203,3.20676 11.31086,6.14155 13.04688,0.44531 1.26769,-3.92153 6.7087,-8.60864 2.45117,-12.68164 -2.56474,-2.88408 -5.25809,-4.00002 -7.74414,-3.94141 z m -101.29883,0.50977 c -8.77648,0.46244 -16.98089,11.43154 -10.73437,19.20703 2.51283,3.43721 7.7641,-0.66828 10.21289,1.90625 0.9543,9.63447 1.24248,19.28786 0.60547,28.87695 5.28315,0.52967 10.64567,1.0064 16.09375,1.42188 -0.008,-4.08222 0.24328,-8.12323 1.20312,-12.04297 5.71596,-2.08054 5.15833,5.41769 5.0293,8.9375 0.007,1.18085 -0.0272,2.36264 -0.0781,3.54492 5.76608,0.39009 11.61471,0.71541 17.53516,0.97852 0.80632,-7.63398 1.81153,-15.28085 -0.29492,-22.67969 -1.84812,-7.12307 -11.00278,-12.32922 -17.22071,-6.97461 -1.13697,1.1298 -4.73085,4.95908 -4.58007,1 -0.11019,-8.77644 -1.98071,-19.99485 -11.51563,-23.29492 -1.31346,-0.49333 -2.70117,-0.79067 -4.10156,-0.88086 l -2.1543,0 z m -35.16992,0.88476 c -13.151673,0.28504 -21.407197,13.19107 -24.96875,24.51758 -1.72032,4.61523 -2.561298,9.62789 -2.519531,14.63086 8.196463,1.88945 16.837224,3.58389 25.847656,5.08789 -1.423016,-0.74028 -2.53111,-2.02411 -2.65625,-3.7832 -1.95767,-7.56679 -1.991529,-16.12173 2.398437,-22.7793 1.897036,-3.6735 9.262252,-5.7561 10.052735,-0.39843 1.314117,5.46469 -7.008519,1.75288 -7.023438,6.83007 0.417249,6.38586 9.196517,10.74908 14.44336,6.5625 6.613701,-3.64018 5.184281,-12.30507 4.050781,-18.27929 -0.88674,-3.55836 0.99657,-9.09636 -1.24414,-11.09375 -6.121713,-0.44334 -12.235477,-1.27703 -18.38086,-1.29493 z m 102.21875,20.07227 c -0.26332,-0.005 -0.52769,-8.1e-4 -0.79102,0.0117 -15.33751,1.07673 -25.20626,17.68889 -22.51562,32.02539 13.90092,0.54961 28.18019,0.75021 42.71875,0.59375 1.05827,-5.88498 -0.0969,-12.0739 -4.16211,-16.80273 -1.90587,-2.45178 -5.10757,-3.30942 -7.88672,-3.74024 0.65222,-3.5383 2.65573,-8.8513 -2.06836,-10.71484 -1.62309,-0.88658 -3.45166,-1.34059 -5.29492,-1.37305 z m 30.87695,1.17773 c -4.59652,-0.028 -10.87617,4.53499 -9.07812,9.46094 1.15491,1.44489 3.8927,0.99671 2.94531,3.69532 0.53968,5.98101 -1.49349,12.19305 -2.21289,18.25781 6.569,-0.0935 13.18819,-0.26231 19.8457,-0.50196 -0.0604,-0.44661 -0.0521,-0.94205 0.0332,-1.48046 -0.94477,-8.55984 3.55293,-19.42194 -3.26954,-26.47657 -2.21772,-2.02999 -5.26978,-3.07954 -8.26367,-2.95508 z m 87.15625,0.54493 c -14.02018,0.40224 -24.58323,13.80474 -25.09765,27.16992 13.30587,-1.20192 26.64498,-2.69413 39.93554,-4.48242 0.52565,-0.5438 1.02167,-1.14268 1.45899,-1.8418 5.98851,-7.02097 -0.20516,-17.09304 -7.97461,-19.31445 -2.6386,-1.04559 -5.48154,-1.59328 -8.32227,-1.53125 z m -47.69726,0.60547 c -11.66107,0.07 -17.95724,12.46381 -20.2168,22.4082 -0.65125,2.35216 -0.84072,4.73954 -0.65039,7.08008 7.36821,-0.32172 14.78065,-0.7403 22.2168,-1.24219 -1.21228,-0.77609 -2.02493,-2.06063 -1.88672,-3.84961 -0.13202,-4.89245 -2.84057,-13.24879 4.01172,-14.78906 4.21484,-0.51903 4.20388,5.90526 1.11914,7.24023 -1.19603,5.16321 6.39738,5.19529 9.44531,3.22266 6.33033,-3.89142 3.97974,-12.67337 3.36133,-18.62305 -5.79368,-0.50271 -11.57514,-1.41842 -17.40039,-1.44726 z m 46.41601,9.60937 c 0.21154,-0.0186 0.42985,-0.0139 0.6543,0.0156 5.61634,0.2269 2.19767,9.89562 -2.64258,7.37109 -2.8094,-1.70729 -1.18484,-7.10765 1.98828,-7.38672 z m -118.73633,0.0742 c 0.34302,-0.003 0.6867,0.0143 1.02735,0.0371 4.71648,-0.12561 0.49742,5.23867 -0.20899,7.58789 -0.74813,4.1019 6.57186,4.18318 3.9961,9.01172 -3.48761,2.51361 -8.48504,-0.18593 -8.07813,-4.54492 0.2608,-3.70541 -1.67693,-9.88186 2.24024,-12.00586 0.33806,-0.0586 0.68042,-0.0827 1.02343,-0.0859 z m -90.320308,4.93359 c -2.309485,-0.0888 -4.497087,1.1287 -4.414062,3.9336 0.05968,2.36914 -1.441467,3.61002 -3.28125,3.91992 6.173697,0.98092 12.525731,1.86713 19.02148,2.66797 -1.11751,-3.83458 -3.63708,-7.21153 -7.501949,-9.01172 -1.008507,-0.93262 -2.438527,-1.45648 -3.824219,-1.50977 z m 174.640628,10.94727 c -0.87792,-0.0235 -1.77741,0.19295 -2.67188,0.71875 -0.25677,0.58822 -0.63215,1.07719 -1.08008,1.48047 2.51595,-0.18841 5.03446,-0.39629 7.55469,-0.60547 -1.14529,-0.93508 -2.44509,-1.55744 -3.80273,-1.59375 z"
       id="path7599"
       inkscape:connector-curvature="0" />
  </g>
  <g
     inkscape:groupmode="layer"
     id="layer4"
     inkscape:label="Dealer's"
     style="display:inline">
    <path
       style="display:inline;fill:url(#linearGradient7559);fill-opacity:1;stroke:none;stroke-width:3;stroke-miterlimit:4;stroke-dasharray:none;stroke-opacity:1"
       d="m 237.26758,54.582031 c -5.55224,0.250984 -11.65665,6.059378 -10.39063,11.783203 1.57772,1.910956 5.39207,1.742944 4.84375,5.304688 1.69381,14.004145 -5.24214,27.793355 -2.61523,41.691408 1.40932,7.048 8.11968,14.31083 15.87305,11.48633 7.37292,-1.83274 12.21274,-11.1632 9.68359,-18.1875 -1.2634,-3.00251 -6.36422,-1.65415 -5.64258,-5.90625 -1.1068,-12.363884 3.53494,-25.409534 -0.41992,-37.558598 -1.79803,-4.637835 -6.03979,-8.873081 -11.33203,-8.613281 z M 96.847656,55.134766 c -1.138704,0.0044 -2.274115,0.04802 -3.40039,0.125 -3.723236,-0.03148 -7.446714,-0.0516 -11.169922,-0.0039 -8.273103,-0.05232 -18.395119,-0.488987 -23.574219,7.392579 -6.955896,8.103331 -4.337435,22.675548 6.328125,26.080078 6.537618,2.722531 15.321525,-3.567844 13.855469,-10.597657 -2.049008,-2.574306 -7.974265,-0.874562 -5.574219,-6.302734 2.25678,-4.27581 9.681318,-1.986754 9.240234,2.974609 1.631942,15.536561 0.166098,31.461409 -3.902343,46.589849 5.170337,2.86567 11.788773,1.31067 17.52539,1.99023 9.315869,0.19173 20.242419,-0.28801 26.242189,-8.63281 11.81202,-14.899495 9.41816,-38.574556 -3.72852,-51.869144 -5.77032,-5.881757 -13.87086,-7.776971 -21.841794,-7.7461 z m 253.912114,0.888672 c -7.21908,0.325919 -10.59102,10.647859 -4.53711,14.93164 2.87464,1.373714 4.74813,3.743159 3.67382,7.195313 -1.29278,8.691514 3.77419,-0.676067 6.41407,-3.302735 6.20813,-5.705895 3.39862,-18.363011 -5.55078,-18.824218 z m -245.1875,18.267578 c 5.77638,1.437053 3.52324,9.45456 3.625,13.65625 -0.60447,5.500747 -2.81843,11.575067 -6.84375,15.335934 -2.812057,-0.17659 -0.19818,-5.271289 -0.77735,-7.496091 0.83087,-6.845141 -2.616073,-14.102281 -0.29492,-20.626953 1.1964,-0.915441 2.87513,-0.769096 4.29102,-0.86914 z m 53.34375,0.71289 c -0.58923,-0.01486 -1.17839,-0.0072 -1.76368,0.02344 -18.57222,0.549273 -31.57311,24.543941 -21.25976,40.203124 7.65491,12.79544 28.31266,13.66837 37.89648,2.81445 5.08965,-5.7244 -1.1877,-15.89559 -8.55078,-13.49023 -2.76436,1.6493 -4.67934,5.26672 -8.65234,2.96289 -2.34929,-0.74695 -4.23408,-4.6441 -3.14063,-6.58594 6.85973,0.75455 16.09953,1.37554 20.14063,-5.669919 4.27548,-5.213216 1.775,-12.588314 -3.15625,-16.316407 -3.23596,-2.601811 -7.38907,-3.837383 -11.51367,-3.941408 z m 154.67187,0.619141 c -0.24531,-0.0026 -0.49519,0.01235 -0.75,0.04492 -4.96012,0.136632 -10.8682,5.540339 -8.98828,10.632812 1.35685,2.041514 5.26629,0.665443 4.51172,4.396485 0.87079,9.893986 -6.66682,21.229926 0.18945,30.193356 4.46935,5.2921 13.59999,6.71916 18.24219,0.86329 3.33998,-2.74919 5.22903,-8.41278 0.91406,-11.26563 -3.23481,-5.7741 -3.57213,-13.639439 -1.39648,-19.85547 1.68352,-1.978021 6.85807,-1.494343 5.16406,2.080079 -1.8641,4.321843 3.02802,7.943581 6.87305,5.830078 7.87586,-2.972588 9.9416,-14.312836 3.43554,-19.792969 -5.36212,-5.233034 -13.4578,-2.855573 -18.76953,1.09375 -3.08776,-0.425157 -5.74619,-4.182277 -9.42578,-4.220701 z m -30.72266,0.167969 c -19.29265,0.579745 -32.80588,26.017884 -20.6582,41.716794 3.56644,4.80413 8.89728,7.52116 14.61524,8.43555 4.76453,0.46813 6.16107,0.48614 8.91015,0 3.48264,-0.54196 6.85631,-1.6854 9.81055,-3.42188 4.99943,-2.79183 8.3994,-10.76684 2.89844,-14.80078 -3.41891,-3.41702 -9.14681,-4.06918 -11.63282,0.74414 -4.30678,2.03032 -9.16026,-2.12782 -7.40039,-6.76562 6.86977,0.64795 15.73737,1.21263 19.79297,-5.740236 4.52537,-5.511683 1.40606,-13.300136 -4.22265,-16.599609 -3.44623,-2.644489 -7.81895,-3.724848 -12.11329,-3.568359 z m 89.02344,0.246093 c -8.29055,-0.23657 -19.48843,3.876043 -19.36719,13.716797 0.0395,8.813888 10.26446,11.494214 17.01368,13.541014 4.46109,0.62011 7.44938,6.29249 4.41601,9.83203 -3.08418,1.36781 -5.54954,-0.71512 -4.93945,-3.82031 -1.86585,-5.38874 -10.07963,-5.36459 -14.1211,-2.39453 -4.12702,2.2493 -7.20111,8.26649 -2.7832,11.82812 7.77134,8.4218 20.75059,7.36145 30.89258,4.86719 9.83823,-2.97942 14.05885,-16.69268 6.51562,-24.13867 -5.14161,-5.361077 -14.5399,-3.441686 -19.26953,-9.058594 -2.13208,-3.925099 3.07273,-5.924441 5.47266,-3.777344 0.52471,6.823217 10.1447,5.768107 13.75391,2.150391 3.84307,-3.496274 0.66896,-9.302823 -3.73047,-10.375 -4.36055,-1.806943 -9.15584,-2.462643 -13.85352,-2.371094 z m -175.16015,0.0039 c -7.06797,0.187888 -15.5529,3.513278 -16.92188,11.066406 0.95202,7.653489 11.76859,11.199207 16.74414,5.201172 1.30386,-2.493965 -0.37223,-7.682697 4.35547,-6.373047 6.34796,1.6186 1.70113,9.959019 -2.83008,11.044922 -7.09821,2.126378 -17.90958,3.300898 -19.38867,12.390618 -1.21285,7.59154 4.91988,15.39279 12.66602,15.97852 5.69425,1.55167 10.64927,-2.0962 15.41406,-4.24609 2.73273,0.69978 6.95151,3.46813 8.95094,4.68516 1.76644,0.46688 1.72918,0.65333 3.9221,-0.15977 3.80118,-2.63645 9.17878,-8.56299 5.4004,-13.15625 -1.42643,-1.45676 -4.69978,0.0654 -4.10352,-3.18164 -1.13627,-9.799009 2.20465,-22.170653 -6.43359,-29.496095 -4.50147,-3.764946 -10.84241,-3.787134 -16.38282,-3.75 -0.45607,-0.01504 -0.92138,-0.01643 -1.39257,-0.0039 z m -40.4375,8.871093 c 0.23849,0.0093 0.48691,0.05678 0.74414,0.148438 4.43729,0.58189 3.65794,8.843509 -1.55664,7.330078 -4.12638,0.907172 -2.76496,-7.617674 0.8125,-7.478516 z m 125.39453,0.919922 c 0.1376,10e-4 0.27795,0.01059 0.42187,0.03125 4.11267,-0.434171 4.34005,7.995289 -0.22461,6.740235 -5.63342,2.279751 -4.46294,-6.80254 -0.19726,-6.771485 z m -77.44141,18.289056 c 2.40912,4.22221 -0.95464,12.77916 -6.58789,9.41016 -4.60432,-4.61806 2.9929,-8.38884 6.58789,-9.41016 z m -85.02539,21.80274 c -0.23533,-0.003 -0.4703,0.007 -0.70508,0.0195 l 2.1543,0 c -0.48249,-0.0311 -0.9661,-0.0384 -1.44922,-0.0195 z"
       id="path7532"
       inkscape:connector-curvature="0"
       sodipodi:nodetypes="cccccccccscccccccccccscccccccccccsccccccccsscccccccccccscccccccccccccccccccccccccscccccccccccccssccssccsccccccc" />
    <path
       style="display:inline;fill:url(#linearGradient7608);fill-opacity:1;stroke:none;stroke-width:3;stroke-miterlimit:4;stroke-dasharray:none;stroke-opacity:1;opacity:0.537"
       d="M 237.26758 54.582031 C 231.71534 54.833015 225.61093 60.641409 226.87695 66.365234 C 228.45467 68.27619 232.26902 68.108178 231.7207 71.669922 C 232.99894 82.238135 229.36712 92.68393 228.63477 103.14648 C 235.60088 103.26885 242.60577 103.31329 249.63867 103.2793 C 249.1012 102.74526 248.80965 101.99057 249.01953 100.75391 C 247.91273 88.390022 252.55447 75.344376 248.59961 63.195312 C 246.80158 58.557477 242.55982 54.322231 237.26758 54.582031 z M 96.847656 55.134766 C 95.708952 55.139166 94.573541 55.182786 93.447266 55.259766 C 89.72403 55.228286 86.000552 55.208159 82.277344 55.255859 C 74.004241 55.203539 63.882225 54.766872 58.703125 62.648438 C 54.262673 67.821381 53.729608 75.627178 56.695312 81.484375 C 62.886701 83.171992 69.292066 84.775805 75.921875 86.28125 C 78.186016 84.178728 79.532554 81.227674 78.886719 78.130859 C 76.837711 75.556553 70.912454 77.256297 73.3125 71.828125 C 75.56928 67.552315 82.993818 69.841371 82.552734 74.802734 C 83.008359 79.140411 83.213797 83.508432 83.197266 87.880859 C 89.18374 89.151093 95.340533 90.342778 101.62305 91.464844 C 101.21491 85.949212 99.443676 80.325506 101.28125 75.160156 C 102.47765 74.244715 104.15638 74.39106 105.57227 74.291016 C 111.34865 75.728069 109.09551 83.745576 109.19727 87.947266 C 109.0285 89.483082 108.72097 91.060641 108.29688 92.623047 C 115.31805 93.799587 122.50522 94.880981 129.83203 95.871094 C 131.04368 83.958942 127.04048 71.325841 118.68945 62.880859 C 112.91913 56.999102 104.81859 55.103895 96.847656 55.134766 z M 350.75977 56.023438 C 343.54069 56.349356 340.16875 66.671297 346.22266 70.955078 C 349.0973 72.328792 350.97079 74.698237 349.89648 78.150391 C 348.6037 86.841905 353.67067 77.474324 356.31055 74.847656 C 362.51868 69.141761 359.70917 56.484645 350.75977 56.023438 z M 158.91602 75.003906 C 158.32679 74.989046 157.73763 74.996704 157.15234 75.027344 C 145.3558 75.376226 135.81691 85.185985 133.0625 96.308594 C 144.39395 97.788408 156.05368 99.043799 167.96875 100.06445 C 170.23951 99.144754 172.21543 97.651133 173.58594 95.261719 C 177.86142 90.048503 175.36094 82.673406 170.42969 78.945312 C 167.19373 76.343502 163.04062 75.107931 158.91602 75.003906 z M 313.58789 75.623047 C 313.34258 75.620447 313.0927 75.635399 312.83789 75.667969 C 307.87777 75.804601 301.96969 81.208308 303.84961 86.300781 C 305.20646 88.342295 309.1159 86.966224 308.36133 90.697266 C 308.65973 94.087778 307.96194 97.648935 307.20312 101.22461 C 313.12649 100.82724 319.04291 100.37468 324.94727 99.859375 C 324.85162 96.677561 325.31337 93.481834 326.31055 90.632812 C 327.99407 88.654792 333.16862 89.138469 331.47461 92.712891 C 330.20974 95.645437 332.05752 98.250015 334.57617 98.964844 C 335.80097 98.844117 337.02287 98.71382 338.24609 98.587891 C 338.27954 98.570447 338.31436 98.561269 338.34766 98.542969 C 346.22352 95.570381 348.28926 84.230133 341.7832 78.75 C 336.42108 73.516966 328.3254 75.894427 323.01367 79.84375 C 319.92591 79.418593 317.26748 75.661471 313.58789 75.623047 z M 282.86523 75.791016 C 268.82814 76.212831 257.86373 89.793981 257.60352 103.20898 C 264.7649 103.1137 271.94733 102.93328 279.14062 102.67188 C 279.20146 102.35117 279.28393 102.02672 279.4082 101.69922 C 286.27797 102.34717 295.14557 102.91185 299.20117 95.958984 C 303.72654 90.447301 300.60723 82.658848 294.97852 79.359375 C 291.53229 76.714886 287.15957 75.634527 282.86523 75.791016 z M 371.88867 76.037109 C 363.59812 75.800539 352.40024 79.913152 352.52148 89.753906 C 352.53448 92.652959 353.66184 94.878863 355.39258 96.646484 C 362.18299 95.804331 368.93548 94.878512 375.64258 93.869141 C 373.57799 93.137253 371.69261 92.128044 370.24609 90.410156 C 368.11401 86.485057 373.31882 84.485716 375.71875 86.632812 C 376.24346 93.456029 385.86345 92.400919 389.47266 88.783203 C 393.31573 85.286929 390.14162 79.48038 385.74219 78.408203 C 381.38164 76.60126 376.58635 75.94556 371.88867 76.037109 z M 196.72852 76.041016 C 189.66055 76.228904 181.17562 79.554294 179.80664 87.107422 C 180.75866 94.760911 191.57523 98.306629 196.55078 92.308594 C 197.85464 89.814629 196.17855 84.625897 200.90625 85.935547 C 207.25421 87.554147 202.60738 95.894566 198.07617 96.980469 C 194.0352 98.191004 188.79476 99.098548 184.75391 101.32812 C 196.54436 102.10578 208.54152 102.65366 220.67578 102.9707 C 220.68324 94.602963 221.36504 85.613335 214.50391 79.794922 C 210.00244 76.029976 203.6615 76.007788 198.12109 76.044922 C 197.66502 76.029882 197.19971 76.028486 196.72852 76.041016 z M 156.29102 84.912109 C 156.52951 84.921409 156.77793 84.968889 157.03516 85.060547 C 161.47245 85.642437 160.6931 93.904056 155.47852 92.390625 C 151.35214 93.297797 152.71356 84.772951 156.29102 84.912109 z M 281.68555 85.832031 C 281.82315 85.833031 281.9635 85.842621 282.10742 85.863281 C 286.22009 85.42911 286.44747 93.85857 281.88281 92.603516 C 276.24939 94.883267 277.41987 85.800976 281.68555 85.832031 z "
       id="path7606" />
  </g>
  <g
     inkscape:groupmode="layer"
     id="layer2"
     inkscape:label="Dealer's Glare"
     style="display:inline;opacity:1" />
  <g
     inkscape:groupmode="layer"
     id="layer3"
     inkscape:label="Choice Glare"
     style="display:inline;opacity:1" />
</svg>
