<?xml version="1.0" encoding="UTF-8" standalone="no"?>
<!-- Created with Inkscape (http://www.inkscape.org/) -->

<svg
   xmlns:osb="http://www.openswatchbook.org/uri/2009/osb"
   xmlns:dc="http://purl.org/dc/elements/1.1/"
   xmlns:cc="http://creativecommons.org/ns#"
   xmlns:rdf="http://www.w3.org/1999/02/22-rdf-syntax-ns#"
   xmlns:svg="http://www.w3.org/2000/svg"
   xmlns="http://www.w3.org/2000/svg"
   xmlns:xlink="http://www.w3.org/1999/xlink"
   xmlns:sodipodi="http://sodipodi.sourceforge.net/DTD/sodipodi-0.dtd"
   xmlns:inkscape="http://www.inkscape.org/namespaces/inkscape"
   id="svg4956"
   version="1.1"
   inkscape:version="0.91 r13725"
   width="424.79999"
   height="261"
   viewBox="0 0 424.79999 261"
   sodipodi:docname="logo.svg">
  <metadata
     id="metadata4962">
    <rdf:RDF>
      <cc:Work
         rdf:about="">
        <dc:format>image/svg+xml</dc:format>
        <dc:type
           rdf:resource="http://purl.org/dc/dcmitype/StillImage" />
        <dc:title></dc:title>
      </cc:Work>
    </rdf:RDF>
  </metadata>
  <defs
     id="defs4960">
    <linearGradient
       inkscape:collect="always"
       id="linearGradient7207">
      <stop
         style="stop-color:#ffffff;stop-opacity:1;"
         offset="0"
         id="stop7209" />
      <stop
         style="stop-color:#ffffff;stop-opacity:0;"
         offset="1"
         id="stop7211" />
    </linearGradient>
    <linearGradient
       id="linearGradient6967"
       osb:paint="solid">
      <stop
         style="stop-color:#00ff00;stop-opacity:1;"
         offset="0"
         id="stop6969" />
    </linearGradient>
    <linearGradient
       inkscape:collect="always"
       xlink:href="#linearGradient7207"
       id="linearGradient7213"
       x1="271.53473"
       y1="175.64577"
       x2="271.53473"
       y2="41.145775"
       gradientUnits="userSpaceOnUse" />
    <linearGradient
       inkscape:collect="always"
       xlink:href="#linearGradient7207"
       id="linearGradient7231"
       gradientUnits="userSpaceOnUse"
       x1="271.53473"
       y1="175.64577"
       x2="271.53473"
       y2="41.145775"
       gradientTransform="matrix(0.99605279,-0.08876277,0.08876277,0.99605279,3.8537145,97.04879)" />
  </defs>
  <sodipodi:namedview
     pagecolor="#ffffff"
     bordercolor="#666666"
     borderopacity="1"
     objecttolerance="10"
     gridtolerance="10"
     guidetolerance="10"
     inkscape:pageopacity="0"
     inkscape:pageshadow="2"
     inkscape:window-width="1615"
     inkscape:window-height="1026"
     id="namedview4958"
     showgrid="false"
     inkscape:zoom="2.8284271"
     inkscape:cx="207.76016"
     inkscape:cy="128.28996"
     inkscape:window-x="65"
     inkscape:window-y="24"
     inkscape:window-maximized="1"
     inkscape:current-layer="layer1" />
  <g
     inkscape:groupmode="layer"
     id="layer1"
     inkscape:label="Layer 1"
     style="display:inline">
    <path
       style="fill:#000000;fill-opacity:1;stroke:none;stroke-width:3;stroke-miterlimit:4;stroke-dasharray:none;stroke-opacity:1"
       d="m 149.48233,225.4615 c -4.21716,-2.07813 -7.24038,-6.45513 -8.45356,-12.23897 -0.83708,-3.99085 -0.7416,-8.03593 0.48584,-20.58224 2.53736,-25.9356 2.03653,-29.56521 -4.07961,-29.56521 -4.31701,0 -4.77883,1.7313 -4.59946,17.24252 l 0.16487,14.25748 -7.45104,0 -7.45104,0 1.28692,-6.525 c 1.7698,-8.97335 2.03028,-39.00952 0.36384,-41.95601 -1.0779,-1.90588 -1.68157,-2.08525 -5.71405,-1.69777 -4.40608,0.42337 -4.53722,0.36525 -5.75569,-2.55094 -0.93958,-2.24875 -1.01109,-3.60434 -0.29013,-5.50059 2.98864,-7.86071 11.86094,-10.83938 18.73552,-6.29001 4.61677,3.05524 6.65067,7.6473 7.25068,16.37032 0.4587,6.66861 0.6489,7.22178 2.57713,7.49505 1.33902,0.18977 2.83705,-0.5198 4.19829,-1.9886 4.71966,-5.09261 11.43085,-3.61041 14.75628,3.25899 2.20375,4.55235 2.3208,7.63699 0.87972,23.18456 -1.25907,13.58381 -0.55863,20.69459 2.37433,24.10437 1.7781,2.06716 2.81515,2.44563 6.70139,2.44563 4.48787,0 4.61867,0.0752 5.47291,3.15 1.20617,4.34142 1.14723,4.9072 -1.04117,9.99427 -3.36081,7.81242 -12.69751,11.19368 -20.41197,7.39215 z m 103.78833,-28.1309 c -8.36151,-2.04464 -13.95335,-7.8133 -15.87824,-16.38031 -1.83755,-8.17839 3.68039,-22.25045 10.6588,-27.18248 3.94525,-2.78832 6.17773,-3.04069 17.03382,-1.92557 l 6.41436,0.65887 0.57132,4.86101 c 0.86456,7.35606 -1.54265,11.11296 -7.12055,11.11296 -2.52201,0 -3.68489,-1.3943 -1.77434,-2.12745 2.10425,-0.80748 1.7991,-7.4661 -0.396,-8.64089 -2.84246,-1.52123 -5.39706,-1.07559 -7.8404,1.36776 -2.16151,2.1615 -2.2805,2.74964 -1.98409,9.80615 0.3874,9.22249 1.77152,11.29443 7.54504,11.29443 2.93101,0 4.10514,-0.45845 5.13099,-2.00347 1.18693,-1.78762 1.59168,-1.88437 3.75654,-0.89799 1.39827,0.63709 3.01575,2.5163 3.81753,4.4352 4.00273,9.57989 -7.56662,18.64616 -19.93478,15.62178 z m -74.64823,-1.1513 c -2.1928,-0.59636 -5.12477,-2.54821 -7.6753,-5.10959 -8.75645,-8.79369 -9.49646,-22.68187 -1.7685,-33.19028 4.91706,-6.68615 14.18737,-10.60516 19.69236,-8.32492 3.24351,1.3435 3.82534,2.74095 2.54904,6.12225 -1.29209,3.42313 -0.39804,5.59832 2.30102,5.59832 5.07838,0 9.59962,6.50326 9.59962,13.80793 0,8.3021 -3.84393,15.1742 -10.50876,18.78741 -5.32841,2.88868 -9.53852,3.57374 -14.18948,2.30888 z m 11.14945,-19.09543 c 1.74732,-2.1054 0.8073,-7.12344 -1.52621,-8.14721 -2.40249,-1.05402 -2.4807,-1.62944 -0.60961,-4.48508 0.77846,-1.18808 1.28471,-3.30009 1.125,-4.69332 -0.26042,-2.27169 -0.67651,-2.56132 -4.031,-2.80581 -5.21216,-0.37987 -6.60939,1.78731 -6.60939,10.25151 0,8.17949 1.91614,11.17112 7.15512,11.17112 1.88346,0 3.90669,-0.58104 4.49609,-1.29121 z m 103.12559,18.80951 c -13.78541,-5.25194 -16.70209,-24.35653 -5.63752,-36.92653 7.22218,-8.20484 16.88457,-10.54621 25.59973,-6.20326 4.71309,2.34863 7.46098,6.14532 7.46098,10.30865 0,2.88497 -2.54505,6.72322 -5.68978,8.58086 -2.58772,1.52859 -4.06463,1.64832 -13.21022,1.07087 -3.02979,-0.1913 -3.16063,-0.0706 -3.42857,3.16345 -0.56971,6.8763 8.16556,10.85278 12.29855,5.59855 1.74183,-2.2144 1.90548,-2.2453 5.01331,-0.94677 6.49969,2.71574 6.2154,9.32591 -0.59493,13.83277 -2.93846,1.94457 -4.75012,2.37874 -10.88186,2.60785 -4.98555,0.18628 -8.50811,-0.16387 -10.92969,-1.08644 z m 12.82293,-28.81933 c 2.67693,-1.875 2.84609,-7.98296 0.25943,-9.36731 -4.50773,-2.41246 -9.05917,0.48828 -9.05917,5.77362 0,4.69553 4.56501,6.55981 8.79974,3.59369 z m -92.06875,26.31201 c -4.03589,-4.03589 -4.67572,-8.06833 -2.81792,-17.75962 0.81781,-4.26615 1.48694,-10.08837 1.48694,-12.93825 0,-4.42473 -0.26294,-5.25039 -1.8,-5.65234 -2.15648,-0.56393 -2.21858,-1.06266 -0.44721,-3.59164 3.73261,-5.32905 12.8029,-4.12766 15.37864,2.03695 1.09838,2.6288 1.24389,5.36965 0.74125,13.96291 -0.66308,11.33624 -0.14255,13.43101 3.33751,13.43101 2.10645,0 2.27875,3.45049 0.35779,7.16522 -3.58784,6.9381 -11.09728,8.48548 -16.237,3.34576 z M 72.072211,193.13204 c -7.408053,-3.69159 -12.08582,-11.221 -13.792876,-22.20121 -0.859101,-5.52595 -0.782344,-7.66148 0.47918,-13.33179 2.799991,-12.58542 8.571295,-21.98509 16.26811,-26.49573 4.240336,-2.485 6.628836,-2.71901 17.819041,-1.74578 l 7.875004,0.6849 0,4.69349 c 0,2.58141 0.39948,6.79996 0.88774,9.37455 1.19092,6.27972 -0.4621,10.40257 -4.917159,12.26401 -2.836929,1.18535 -3.491871,1.18068 -5.855707,-0.0417 -4.718709,-2.44015 -5.993256,-6.7577 -1.994878,-6.7577 3.279972,0 4.68,-1.49292 4.68,-4.99051 0,-3.57001 -2.409968,-5.80949 -6.251749,-5.80949 -2.22048,0 -3.803206,0.84322 -6.334916,3.375 -2.917214,2.9173 -3.525648,4.26877 -4.486484,9.96551 -1.666289,9.87933 0.176862,18.56019 4.423297,20.83281 4.446598,2.37975 9.949852,-0.12267 9.949852,-4.52435 0,-3.21248 1.800294,-3.46517 6.083225,-0.85383 5.959219,3.63337 7.941779,10.15216 5.132449,16.87583 -1.93444,4.62976 -3.781409,6.46275 -8.965674,8.8978 -6.441716,3.02567 -14.668197,2.94269 -20.998455,-0.21181 z M 215.71829,141.87216 c -4.75107,-2.57832 -5.69976,-7.76607 -2.04762,-11.19708 3.049,-3.05653 5.67151,-3.70055 8.92755,-2.33827 1.69266,0.70724 3.5472,2.16342 4.1212,3.23596 0.87814,1.64081 0.67554,2.48125 -1.27755,5.29957 -1.27667,1.84222 -2.3212,4.03647 -2.3212,4.87612 0,1.93518 -3.94294,2.00106 -7.40238,0.1237 z M 189.979,122.97469 c -4.90516,-1.44833 -6.38395,-2.72212 -8.37612,-7.21501 -1.30126,-2.93471 -1.44522,-4.31745 -0.72214,-6.93622 1.19974,-4.34508 4.64463,-6.639 12.69016,-8.45025 5.09853,-1.147824 7.26511,-2.149124 9.52477,-4.401964 5.1117,-5.09627 3.35198,-12.096171 -3.04087,-12.096171 -3.44779,0 -4.83413,1.451179 -4.83413,5.060203 0,2.511978 -0.41824,3.038238 -3.12444,3.931358 -3.85334,1.27172 -7.38933,-0.14477 -9.42439,-3.775315 -1.25752,-2.243413 -1.22035,-2.630547 0.47539,-4.95 3.18924,-4.362313 7.94194,-6.116246 16.57344,-6.116246 9.6128,0 13.80691,1.901942 16.83929,7.636261 1.82052,3.442655 2.06071,5.17061 2.06071,14.825294 0,11.21726 0.52968,13.08845 3.705,13.08845 3.29778,0 2.53761,4.47556 -1.43488,8.44806 -1.29357,1.29357 -2.78105,2.35194 -3.30551,2.35194 -0.52447,0 -2.75386,-1.215 -4.95421,-2.7 -4.72207,-3.18688 -6.70256,-3.35116 -10.1019,-0.83791 -3.66449,2.70927 -8.0716,3.45988 -12.55017,2.13752 z m 15.11736,-9.12313 c 2.69175,-3.422 2.32715,-11.39055 -0.53989,-11.79956 -1.87052,-0.26684 -8.17383,3.37341 -9.52735,5.50219 -0.37449,0.58898 -0.6871,2.0515 -0.69468,3.25002 -0.0347,5.4871 7.22568,7.54295 10.76192,3.04735 z m 68.19748,9.29411 c -5.24379,-1.95621 -9.29712,-5.52547 -11.54268,-10.16417 -8.37117,-17.292534 8.92963,-39.390986 27.02445,-34.518556 4.54879,1.22486 9.53372,5.709859 10.46341,9.41405 0.84719,3.375472 -1.53703,8.136332 -5.23174,10.446842 -2.41101,1.50774 -4.14477,1.788544 -9.68662,1.56884 l -6.75,-0.2676 -0.28544,3.477654 c -0.38755,4.72151 2.40997,7.77235 7.127,7.77235 2.54642,0 3.82099,-0.56343 5.17842,-2.28912 1.74183,-2.21439 1.90548,-2.24529 5.01331,-0.94676 1.77285,0.74075 3.69406,2.39883 4.28675,3.69967 1.48815,3.26613 -0.9598,7.63698 -5.80112,10.35795 -4.60231,2.58664 -14.7541,3.32965 -19.79574,1.44885 z m 12.64682,-29.550594 c 1.79509,-1.79509 1.35017,-7.712085 -0.66083,-8.788335 -4.67645,-2.502757 -9.05917,0.0893 -9.05917,5.357825 0,1.82078 0.27,3.58051 0.60001,3.91051 1.02456,1.02457 7.98158,0.65841 9.11999,-0.48 z m 28.41583,28.997094 c -6.51793,-2.97994 -8.00348,-7.86201 -5.65811,-18.59459 2.81053,-12.861204 2.17911,-18.322505 -2.11837,-18.322505 -2.2601,0 -1.32596,-3.311734 1.71358,-6.075 2.92353,-2.657815 6.73828,-2.57252 10.06294,0.225 1.47069,1.2375 3.30628,2.25 4.07909,2.25 0.77281,0 2.89711,-1.0125 4.72067,-2.25 7.5684,-5.136053 16.56437,-0.582807 16.56437,8.383933 0,4.600738 -5.44301,9.845008 -9.03488,8.704998 -1.48029,-0.46983 -1.67981,-1.10544 -1.23001,-3.9183 0.65888,-4.12045 -0.93398,-5.767504 -5.18079,-5.357039 -3.88804,0.375789 -5.22539,3.092489 -5.23603,10.636409 -0.01,7.107984 1.19293,11.788194 3.58676,13.954574 2.42507,2.19465 2.2593,4.017 -0.68005,7.47591 -3.39367,3.99355 -7.13158,4.92458 -11.58917,2.88661 z m -167.27588,-0.55785 c -8.41599,-3.08016 -13.88897,-12.57635 -12.75694,-22.134584 0.75268,-6.35518 5.55105,-14.7784 10.46888,-18.377415 10.24079,-7.494502 24.38071,-5.397217 28.29734,4.197164 1.17904,2.888251 1.14436,3.551033 -0.36188,6.915311 -2.00731,4.4835 -6.12108,6.90299 -11.25674,6.62061 -1.98033,-0.10889 -5.00798,-0.27276 -6.72809,-0.36415 -3.42342,-0.18191 -4.26409,1.205074 -3.22932,5.327904 0.91831,3.65886 3.71858,5.75592 7.68606,5.75592 2.76693,0 3.89473,-0.48148 4.96932,-2.12151 2.54833,-3.88924 9.45143,-0.39256 9.45143,4.78752 0,8.18484 -15.17092,13.55423 -26.54006,9.39323 z m 13.57036,-29.225894 c 1.72931,-1.4352 1.60208,-6.174332 -0.21979,-8.187484 -1.85461,-2.049313 -5.49099,-2.123504 -7.66465,-0.156378 -1.91465,1.732738 -2.23811,7.445652 -0.52086,9.199462 1.28371,1.31105 6.42528,0.78768 8.4053,-0.8556 z m 75.63163,28.800164 c -3.49498,-2.7576 -5.91947,-8.42797 -5.9362,-13.88351 -0.007,-2.475 0.79083,-9.157504 1.77426,-14.850004 2.34637,-13.581664 2.40613,-23.472487 0.15414,-25.510512 -0.90523,-0.819219 -2.12023,-1.489489 -2.7,-1.489489 -3.00831,0 0.92316,-6.989885 4.85564,-8.632978 6.14958,-2.569455 12.22799,2.485463 13.54437,11.263746 0.33316,2.221671 0.10474,10.403914 -0.50761,18.182763 -1.22726,15.590524 -0.65247,18.955104 3.33541,19.523874 2.7972,0.39895 3.46379,3.87394 1.65277,8.61603 -2.02024,5.28991 -4.99643,7.86275 -9.70367,8.38858 -3.09567,0.3458 -4.40477,0.0203 -6.46911,-1.6085 z m 124.38871,0.50019 c -4.04616,-1.29502 -8.85065,-5.61196 -8.85065,-7.9525 0,-2.02046 2.92572,-5.26736 5.84567,-6.4874 2.16424,-0.90427 3.74931,-0.98443 6.18238,-0.31262 2.75149,0.75972 3.27195,1.29755 3.27195,3.38112 0,3.22867 1.50391,4.6377 4.95,4.6377 3.75768,0 4.95,-1.43672 4.95,-5.96468 0,-4.83248 -2.32743,-6.81208 -11.07022,-9.415804 -7.89631,-2.35162 -11.42978,-5.53161 -11.42978,-10.28636 0,-7.246001 7.00714,-11.683161 18.45,-11.683161 7.10739,0 14.33198,2.300404 15.79194,5.028359 1.32671,2.478983 -0.37755,5.123928 -3.88766,6.033487 -4.46985,1.158255 -6.80923,0.376539 -7.12869,-2.382095 -0.23734,-2.049447 -0.75275,-2.419041 -3.7134,-2.662824 -4.28092,-0.352497 -6.01219,1.016398 -6.01219,4.753784 0,3.93541 2.10308,5.57915 9.9041,7.74092 8.33689,2.31027 9.60167,3.01273 11.74069,6.520814 3.84435,6.30485 1.2217,14.39593 -5.84932,18.04567 -4.65172,2.40101 -17.0957,2.94167 -23.14482,1.00559 z m -273.675644,-1.0466 c -3.34125,-0.20314 -6.070193,-0.45209 -6.064318,-0.55322 0.0058,-0.10113 0.605405,-2.41138 1.332288,-5.13388 1.897951,-7.10867 3.485935,-27.027879 2.86084,-35.885545 -0.642265,-9.100977 -2.438598,-11.81446 -7.821203,-11.81446 -3.974411,0 -6.282606,2.191827 -6.282606,5.965867 0,3.206083 1.424588,4.834133 4.23,4.834133 2.299391,0 2.561681,0.956901 1.064663,3.884167 -3.791578,7.414044 -13.585964,6.289387 -18.028213,-2.070125 -4.389107,-8.259508 1.309987,-20.11416 10.749472,-22.359913 1.833743,-0.436268 10.826577,-0.75067 19.984077,-0.698671 16.309104,0.09261 16.754684,0.145954 21.763444,2.605618 8.64587,4.245762 14.21985,12.494444 16.50158,24.419971 2.84587,14.874014 -2.75937,29.445888 -13.42981,34.913248 -3.88968,1.99301 -13.76531,2.68893 -26.860214,1.89281 z M 107.92067,98.750206 c 2.72187,-5.42203 3.19161,-7.31806 3.45616,-13.950435 0.27185,-6.815224 0.0839,-7.958191 -1.6771,-10.196896 -1.68974,-2.148151 -2.53328,-2.481096 -5.69945,-2.249559 -5.437559,0.397642 -6.368189,2.805524 -5.014859,12.975223 0.57122,4.292412 0.76963,10.181557 0.44091,13.086987 -0.70311,6.214664 -0.25566,7.257594 2.954329,6.886134 1.95918,-0.22672 2.95782,-1.40768 5.54001,-6.551454 z M 351.85303,74.619722 c -0.0242,-1.877993 -0.79903,-2.957696 -3.09403,-4.311778 -5.01813,-2.960772 -4.97586,-9.017146 0.0818,-11.723944 3.07273,-1.644474 6.55556,0.391567 8.23989,4.816982 1.4514,3.813425 0.72856,6.473857 -2.99824,11.035073 l -2.19708,2.68902 -0.0324,-2.505353 z"
       id="path5506"
       inkscape:connector-curvature="0"
       inkscape:export-filename="/home/ryan/proj/dealers-choice/front-end/src/images/logo.png"
       inkscape:export-xdpi="90"
       inkscape:export-ydpi="90"
       sodipodi:nodetypes="ssssscccsssssssssssssssssssscssssssssssssssssssssssssssssssssssssssssssssssssssssssssssscssssssssssssssssccsssssssssssssssssssssssssssssssssscsssssssssscsssssssssssssssssssssssssssssssssscsssssssssssssssssssssssssssssscssssssssssssssssssssscssssccc" />
  </g>
  <g
     inkscape:groupmode="layer"
     id="layer2"
     inkscape:label="Layer 2"
     style="display:none"
     sodipodi:insensitive="true">
    <path
       style="fill:url(#linearGradient7213);fill-opacity:1;fill-rule:evenodd;stroke:none;stroke-width:1px;stroke-linecap:butt;stroke-linejoin:miter;stroke-opacity:1"
       d="M 3.2279633,55.701525 C 111.12371,113.4778 404.71167,127.22261 547.66657,44.762252 L 281,-52.5 Z"
       id="path7205"
       inkscape:connector-curvature="0"
       sodipodi:nodetypes="cc" />
  </g>
  <g
     inkscape:groupmode="layer"
     id="layer3"
     inkscape:label="Layer 3"
     style="display:none"
     sodipodi:insensitive="true">
    <path
       sodipodi:nodetypes="cc"
       inkscape:connector-curvature="0"
       id="path7229"
       d="M 12.013158,152.24393 C 124.6114,200.21502 418.26054,187.84589 553.33175,93.02195 L 279.0845,19.813676 Z"
       style="display:inline;fill:url(#linearGradient7231);fill-opacity:1;fill-rule:evenodd;stroke:none;stroke-width:1px;stroke-linecap:butt;stroke-linejoin:miter;stroke-opacity:1" />
  </g>
</svg>
