<?xml version="1.0" encoding="UTF-8" standalone="no"?>
<!-- Created with Inkscape (http://www.inkscape.org/) -->

<svg
   xmlns:dc="http://purl.org/dc/elements/1.1/"
   xmlns:cc="http://creativecommons.org/ns#"
   xmlns:rdf="http://www.w3.org/1999/02/22-rdf-syntax-ns#"
   xmlns:svg="http://www.w3.org/2000/svg"
   xmlns="http://www.w3.org/2000/svg"
   xmlns:sodipodi="http://sodipodi.sourceforge.net/DTD/sodipodi-0.dtd"
   xmlns:inkscape="http://www.inkscape.org/namespaces/inkscape"
   id="svg4852"
   version="1.1"
   inkscape:version="0.91 r13725"
   width="283.20895"
   height="223.8806"
   viewBox="0 0 283.20895 223.8806"
   sodipodi:docname="paper.svg">
  <metadata
     id="metadata4858">
    <rdf:RDF>
      <cc:Work
         rdf:about="">
        <dc:format>image/svg+xml</dc:format>
        <dc:type
           rdf:resource="http://purl.org/dc/dcmitype/StillImage" />
        <dc:title></dc:title>
      </cc:Work>
    </rdf:RDF>
  </metadata>
  <defs
     id="defs4856" />
  <sodipodi:namedview
     pagecolor="#ffffff"
     bordercolor="#666666"
     borderopacity="1"
     objecttolerance="10"
     gridtolerance="10"
     guidetolerance="10"
     inkscape:pageopacity="0"
     inkscape:pageshadow="2"
     inkscape:window-width="1596"
     inkscape:window-height="1005"
     id="namedview4854"
     showgrid="false"
     inkscape:zoom="1"
     inkscape:cx="272.15977"
     inkscape:cy="96.115069"
     inkscape:window-x="84"
     inkscape:window-y="1"
     inkscape:window-maximized="1"
     inkscape:current-layer="svg4852" />
  <path
     style="fill:#000000"
     d="m 398.73898,242.26828 c -1.93376,-1.17914 -3.8584,-2.69803 -4.27698,-3.37531 -1.24958,-2.02186 -11.50107,-6.78586 -14.60228,-6.78586 -1.87265,0 -4.385,-1.53535 -7.18254,-4.38942 -3.41153,-3.48043 -5.43068,-4.54926 -9.75045,-5.16136 -5.5783,-0.79042 -13.0481,-3.72362 -16.13365,-6.33528 -2.4301,-2.05686 -5.54564,-6.74411 -5.54564,-8.34326 0,-0.73871 2.51514,-5.03427 5.58919,-9.5457 3.07406,-4.51143 5.59272,-8.8618 5.59702,-9.66749 0.004,-0.80569 -1.49221,-3.33148 -3.32557,-5.61286 -5.54813,-6.90389 -5.50417,-9.85357 0.30971,-20.78254 6.2085,-11.67077 13.06484,-21.38838 21.87283,-31.00075 3.68399,-4.02042 8.23365,-10.56625 10.12211,-14.56318 3.92274,-8.30249 16.04216,-22.340896 37.23408,-43.129707 l 13.83197,-13.568857 43.09702,2.095832 c 23.70335,1.152709 45.03952,1.969515 47.41371,1.815126 4.03597,-0.262452 4.44681,-0.624649 6.31762,-5.569515 3.71055,-9.807679 19.73402,-27.378018 31.10799,-34.111099 3.24264,-1.919552 7.08684,-3.026066 11.83797,-3.407441 6.7129,-0.538848 7.22783,-0.396306 11.21516,3.104622 10.69817,9.393119 22.15123,32.979358 36.0809,74.304415 l 4.87155,14.452434 -5.21756,6.10722 c -6.15812,7.20817 -15.02067,14.46744 -20.46107,16.75955 -3.78613,1.59515 -5.60024,1.56114 -19.13708,-0.35875 -8.95025,-1.26939 -18.34144,5.32521 -31.81461,22.34058 -15.3935,19.44057 -37.38446,32.69101 -62.48126,37.64746 -10.98502,2.16947 -19.55647,7.50865 -42.29734,26.34717 -25.5643,21.17743 -35.73447,25.94035 -44.2728,20.73397 z m 16.23236,-10.17735 c 9.49859,-5.07678 20.65905,-13.80387 33.78597,-26.41942 6.4905,-6.23766 13.7946,-12.35521 16.23134,-13.59456 2.43674,-1.23934 11.48267,-4.07973 20.10207,-6.31197 27.19085,-7.04186 39.41421,-14.70082 62.01276,-38.8562 4.95958,-5.30123 11.84355,-11.81895 15.29772,-14.48383 5.74928,-4.43554 6.22334,-5.13497 5.60663,-8.27184 -0.76212,-3.87644 -12.43671,-24.67563 -21.40132,-38.128094 -6.62422,-9.940458 -10.79697,-13.299135 -18.71051,-15.06022 -2.93098,-0.652263 -24.84329,-1.692199 -48.69403,-2.310971 l -43.36498,-1.125039 -19.88524,20.345462 c -19.86976,20.329622 -26.9204,28.957492 -25.87983,31.669162 1.6151,4.20888 13.7304,5.26317 21.24808,1.84905 2.52312,-1.14587 7.56043,-4.37003 11.19403,-7.16482 7.42267,-5.70915 19.19278,-11.97128 22.50085,-11.97128 1.20148,0 5.11233,2.2735 8.69077,5.05222 6.53787,5.07676 17.84103,10.98662 27.76744,14.51821 2.93567,1.04445 6.13986,2.70126 7.12041,3.68181 5.35586,5.35587 -11.89857,5.8589 -22.25954,0.64895 -2.92816,-1.4724 -8.76217,-5.18573 -12.96448,-8.25183 -9.76551,-7.12516 -12.95391,-7.28886 -22.11641,-1.13552 -3.63556,2.44157 -8.5448,6.09277 -10.90943,8.11377 l -4.29932,3.67456 -15.53331,0.60353 c -14.96245,0.58135 -15.70566,0.72541 -20.22258,3.91981 -2.5791,1.82396 -8.12601,8.10173 -12.32647,13.95061 -16.5142,22.995 -18.26359,30.70047 -7.48244,32.95756 5.33508,1.11693 4.72201,8.60817 -1.31973,16.12631 -3.93744,4.89962 -5.4742,11.8913 -3.44648,15.68013 1.62798,3.0419 5.73868,3.08783 12.24219,0.13679 2.68384,-1.21782 5.53243,-2.21422 6.3302,-2.21422 0.79777,0 2.76531,2.24356 4.37231,4.98571 8.60419,14.68193 16.6484,11.39011 48.71731,-19.93588 18.69923,-18.26602 24.87894,-23.29674 26.5567,-21.61898 2.45653,2.45653 -27.90603,35.6893 -42.77674,46.82048 -14.9349,11.17925 -11.98037,20.5634 3.81606,12.12055 z m -34.50022,-25.11667 c -2.25423,-2.71619 -0.31411,-5.77385 8.69155,-13.69799 4.73804,-4.16905 14.15566,-12.67275 20.92805,-18.89713 14.71219,-13.52171 22.41662,-19.51084 25.09882,-19.51084 1.08876,0 2.90861,1.02658 4.0441,2.28129 2.01562,2.22723 1.99984,2.34446 -0.66606,4.94848 -6.9961,6.83369 -54.29381,46.50157 -55.44582,46.50157 -0.71593,0 -1.90871,-0.73143 -2.65064,-1.62538 z m -12.35801,-27.31114 c 0,-1.13897 1.58276,-4.28729 3.51725,-6.99627 4.77883,-6.69207 31.28017,-32.88345 35.4593,-35.04455 3.08925,-1.59752 3.55019,-1.58134 5.60495,0.1967 1.23138,1.06555 2.5575,3.03621 2.94693,4.37926 0.58146,2.00535 -0.01,2.7826 -3.30805,4.34767 -3.86536,1.83423 -10.75474,7.81867 -30.48143,26.47765 -9.13667,8.64215 -13.73895,10.86626 -13.73895,6.63954 z M 528.8495,130.02966 c -1.55454,-3.26972 -5.03297,-8.4636 -7.72982,-11.54196 -5.85022,-6.6778 -8.22725,-12.75127 -6.35776,-16.24445 3.09234,-5.778099 10.59619,1.56281 19.11421,18.69914 5.18453,10.43012 5.39085,14.15574 0.81318,14.68429 -2.65686,0.30677 -3.34775,-0.3554 -5.83981,-5.59702 z m 57.54719,-5.92732 c 0,-4.33031 -19.19959,-39.616346 -31.37728,-57.666876 -5.12099,-7.590639 -13.13188,-15.96876 -14.47507,-15.138621 -2.34199,1.44743 2.90261,12.48174 17.15685,36.096925 5.28549,8.756544 11.67061,20.019362 14.18914,25.028482 4.83692,9.62015 8.99821,14.46097 12.43101,14.46097 1.46393,0 2.07535,-0.81927 2.07535,-2.78088 z"
     id="path5402"
     inkscape:connector-curvature="0" />
</svg>
