<?xml version="1.0" encoding="UTF-8" standalone="no"?>
<!-- Created with Inkscape (http://www.inkscape.org/) -->

<svg
   xmlns:dc="http://purl.org/dc/elements/1.1/"
   xmlns:cc="http://creativecommons.org/ns#"
   xmlns:rdf="http://www.w3.org/1999/02/22-rdf-syntax-ns#"
   xmlns:svg="http://www.w3.org/2000/svg"
   xmlns="http://www.w3.org/2000/svg"
   xmlns:sodipodi="http://sodipodi.sourceforge.net/DTD/sodipodi-0.dtd"
   xmlns:inkscape="http://www.inkscape.org/namespaces/inkscape"
   width="210mm"
   height="297mm"
   viewBox="0 0 744.09448819 1052.3622047"
   id="svg2"
   version="1.1"
   inkscape:version="0.91 r13725"
   inkscape:export-filename="/Users/ryan/Personal/proj/dealers-choice/front-end/src/images/rps/rock.png"
   inkscape:export-xdpi="68.883629"
   inkscape:export-ydpi="68.883629"
   sodipodi:docname="rock.svg">
  <defs
     id="defs4" />
  <sodipodi:namedview
     id="base"
     pagecolor="#ffffff"
     bordercolor="#666666"
     borderopacity="1.0"
     inkscape:pageopacity="0.0"
     inkscape:pageshadow="2"
     inkscape:zoom="1"
     inkscape:cx="207.37591"
     inkscape:cy="568.91815"
     inkscape:document-units="px"
     inkscape:current-layer="layer1"
     showgrid="false"
     inkscape:window-width="1596"
     inkscape:window-height="1005"
     inkscape:window-x="84"
     inkscape:window-y="1"
     inkscape:window-maximized="1" />
  <metadata
     id="metadata7">
    <rdf:RDF>
      <cc:Work
         rdf:about="">
        <dc:format>image/svg+xml</dc:format>
        <dc:type
           rdf:resource="http://purl.org/dc/dcmitype/StillImage" />
        <dc:title></dc:title>
      </cc:Work>
    </rdf:RDF>
  </metadata>
  <g
     inkscape:label="Layer 1"
     inkscape:groupmode="layer"
     id="layer1">
    <path
       style="fill:#000000"
       d="m 300.51211,689.73971 c -1.80107,-5.67466 -6.25325,-8.68222 -12.85245,-8.68222 -10.7578,0 -26.69916,-13.08683 -26.69916,-21.9183 0,-2.92376 -5.58525,-7.42413 -12.41169,-10.00082 -12.51455,-4.72371 -23.22694,-23.04382 -18.21572,-31.15217 1.45022,-2.3465 0.38808,-5.6561 -2.36032,-7.35469 -2.7484,-1.69863 -6.06249,-11.03149 -7.36461,-20.73978 -2.18965,-16.32475 -1.23011,-18.69349 12.76648,-31.51605 11.17673,-10.23923 15.13407,-17.22983 15.13407,-26.73416 0,-15.52211 9.62532,-35.3881 18.86363,-38.93317 11.3992,-4.37427 60.5828,-2.56195 91.12716,3.35783 30.70814,5.95154 35.1472,4.39607 32.51299,-11.39268 -1.95925,-11.74319 24.93698,-48.50116 35.48888,-48.50116 9.673,0 44.01022,51.40301 64.61651,96.7313 8.10027,17.81838 14.72777,33.10029 14.72777,33.9598 0,4.86889 -28.43606,20.61132 -40.8866,22.63506 -11.99037,1.949 -15.22588,4.66423 -17.91244,15.03192 -2.18724,8.44074 -16.83029,25.18844 -43.98374,50.30531 l -40.70493,37.65196 -29.54511,2.9671 c -27.65189,2.777 -29.72171,2.41079 -32.30072,-5.71508 z m 45.6077,-4.53162 c 6.23627,0 22.86306,-12.97966 49.28832,-38.47686 44.52548,-42.96169 47.18912,-49.7607 30.08444,-76.79116 -5.38611,-8.51167 -14.76832,-24.28734 -20.8494,-35.05706 -12.13597,-21.49315 -18.32231,-24.33735 -68.97195,-31.70997 -63.82545,-9.29048 -70.85581,-6.18127 -78.86397,34.87787 -6.10864,31.31994 1.77828,66.22056 14.9646,66.22056 6.75119,0 7.79394,-2.97411 7.35581,-20.97964 -0.45777,-18.81063 0.67605,-21.66068 10.96633,-27.56648 11.13148,-6.38859 11.74374,-6.22585 20.34605,5.40943 11.85236,16.03118 35.52176,25.71431 55.323,22.63266 12.19051,-1.89723 15.56474,-1.06201 15.56474,3.85259 0,7.51274 -30.23481,8.77672 -48.0373,2.00822 -6.17226,-2.3467 -11.98808,-3.50099 -12.924,-2.56507 -4.56046,4.56047 4.66453,22.9271 13.54871,26.97501 5.72894,2.61031 10.05723,8.1304 10.05723,12.82655 0,4.53428 3.84747,10.30323 8.54993,12.8199 9.54309,5.10731 9.9731,24.89279 0.60786,27.96954 -3.86562,1.27 -4.63061,-1.1791 -2.73159,-8.74539 1.99731,-7.95777 0.52961,-11.82592 -6.04485,-15.93173 -4.77538,-2.98228 -8.68255,-8.75531 -8.68255,-12.82891 0,-4.90899 -4.19882,-8.24628 -12.45178,-9.89689 -8.32452,-1.66488 -12.45179,-4.97718 -12.45179,-9.99301 0,-10.46033 -16.6314,-15.16342 -22.96961,-6.49544 -2.70842,3.704 -10.32182,6.76004 -16.91861,6.79121 -32.97101,0.15565 -42.4877,16.18296 -16.14482,27.18972 9.10549,3.80452 14.52708,8.90697 14.52708,13.67198 0,4.18123 3.72877,10.97671 8.28621,15.10111 8.0412,7.2772 8.90846,7.11209 29.32994,-5.58259 23.05162,-14.32964 24.64279,-14.92147 24.64279,-9.16559 0,2.15378 -5.60331,7.22589 -12.45179,11.2714 -19.87949,11.74311 -15.91762,28.87955 5.67827,24.5604 6.57894,-1.31582 16.1967,-2.39236 21.3727,-2.39236 z M 274.175,639.33873 c 2.53734,-7.61202 27.34911,-21.27222 30.21509,-16.635 1.4508,2.34749 -3.52485,8.02546 -11.05702,12.61777 -15.23621,9.28932 -21.34224,10.56969 -19.15807,4.01723 z m 107.15278,-35.06726 c 0,-3.45882 3.68942,-6.22589 8.30119,-6.22589 4.61177,0 8.30119,2.76707 8.30119,6.22589 0,3.45882 -3.68942,6.22589 -8.30119,6.22589 -4.61177,0 -8.30119,-2.76707 -8.30119,-6.22589 z m -127.44952,-9.0493 c -0.47101,-4.47384 -2.88654,-13.47407 -5.36789,-20.00051 l -4.51153,-11.86627 -8.36984,8.36981 c -6.0815,6.08153 -7.62722,11.32847 -5.65369,19.19164 4.05056,16.13881 25.55654,20.01235 23.90295,4.30533 z m 54.81409,-15.85428 c 0,-6.06871 -3.22323,-8.66922 -11.98513,-9.66964 -9.7417,-1.11228 -11.48981,-0.0776 -9.33884,5.52772 1.45544,3.7929 2.64629,8.74108 2.64629,10.99597 0,2.25489 4.20248,3.50294 9.33884,2.77347 6.12968,-0.87055 9.33884,-4.1789 9.33884,-9.62752 z m 143.19556,-5.51431 c 0,-15.31794 -41.56324,-71.27171 -52.9416,-71.27171 -4.28063,0 -3.65277,2.92003 2.47965,11.53218 4.51639,6.34274 12.69493,19.88406 18.17454,30.09182 15.80854,29.44935 21.46797,37.23732 27.05994,37.23732 2.87512,0 5.22747,-3.41532 5.22747,-7.58961 z"
       id="path4160"
       inkscape:connector-curvature="0" />
  </g>
</svg>
