<?xml version="1.0" encoding="UTF-8" standalone="no"?>
<!-- Created with Inkscape (http://www.inkscape.org/) -->

<svg
   xmlns:dc="http://purl.org/dc/elements/1.1/"
   xmlns:cc="http://creativecommons.org/ns#"
   xmlns:rdf="http://www.w3.org/1999/02/22-rdf-syntax-ns#"
   xmlns:svg="http://www.w3.org/2000/svg"
   xmlns="http://www.w3.org/2000/svg"
   xmlns:sodipodi="http://sodipodi.sourceforge.net/DTD/sodipodi-0.dtd"
   xmlns:inkscape="http://www.inkscape.org/namespaces/inkscape"
   width="210mm"
   height="297mm"
   viewBox="0 0 744.09448819 1052.3622047"
   id="svg2"
   version="1.1"
   inkscape:version="0.91 r13725"
   inkscape:export-filename="/Users/ryan/Personal/proj/dealers-choice/front-end/src/images/rps/rock-hover.png"
   inkscape:export-xdpi="68.883629"
   inkscape:export-ydpi="68.883629"
   sodipodi:docname="rock-hover.svg">
  <defs
     id="defs4" />
  <sodipodi:namedview
     id="base"
     pagecolor="#ffffff"
     bordercolor="#666666"
     borderopacity="1.0"
     inkscape:pageopacity="0.0"
     inkscape:pageshadow="2"
     inkscape:zoom="1"
     inkscape:cx="248.87591"
     inkscape:cy="448.91815"
     inkscape:document-units="px"
     inkscape:current-layer="layer1"
     showgrid="false"
     inkscape:window-width="1596"
     inkscape:window-height="1005"
     inkscape:window-x="84"
     inkscape:window-y="1"
     inkscape:window-maximized="1" />
  <metadata
     id="metadata7">
    <rdf:RDF>
      <cc:Work
         rdf:about="">
        <dc:format>image/svg+xml</dc:format>
        <dc:type
           rdf:resource="http://purl.org/dc/dcmitype/StillImage" />
        <dc:title></dc:title>
      </cc:Work>
    </rdf:RDF>
  </metadata>
  <g
     inkscape:label="Layer 1"
     inkscape:groupmode="layer"
     id="layer1">
    <path
       style="fill:#048ebe;fill-opacity:1"
       d="m 300.51211,689.73971 c -1.80107,-5.67466 -6.25325,-8.68222 -12.85245,-8.68222 -10.7578,0 -26.69916,-13.08683 -26.69916,-21.9183 0,-2.92376 -5.58525,-7.42413 -12.41169,-10.00082 -12.51455,-4.72371 -23.22694,-23.04382 -18.21572,-31.15217 1.45022,-2.3465 0.38808,-5.6561 -2.36032,-7.35469 -2.7484,-1.69863 -6.06249,-11.03149 -7.36461,-20.73978 -2.18965,-16.32475 -1.23011,-18.69349 12.76648,-31.51605 11.17673,-10.23923 15.13407,-17.22983 15.13407,-26.73416 0,-15.52211 9.62532,-35.3881 18.86363,-38.93317 11.3992,-4.37427 60.5828,-2.56195 91.12716,3.35783 30.70814,5.95154 35.1472,4.39607 32.51299,-11.39268 -1.95925,-11.74319 24.93698,-48.50116 35.48888,-48.50116 9.673,0 44.01022,51.40301 64.61651,96.7313 8.10027,17.81838 14.72777,33.10029 14.72777,33.9598 0,4.86889 -28.43606,20.61132 -40.8866,22.63506 -11.99037,1.949 -15.22588,4.66423 -17.91244,15.03192 -2.18724,8.44074 -16.83029,25.18844 -43.98374,50.30531 l -40.70493,37.65196 -29.54511,2.9671 c -27.65189,2.777 -29.72171,2.41079 -32.30072,-5.71508 z m 45.6077,-4.53162 c 6.23627,0 22.86306,-12.97966 49.28832,-38.47686 44.52548,-42.96169 47.18912,-49.7607 30.08444,-76.79116 -5.38611,-8.51167 -14.76832,-24.28734 -20.8494,-35.05706 -12.13597,-21.49315 -18.32231,-24.33735 -68.97195,-31.70997 -63.82545,-9.29048 -70.85581,-6.18127 -78.86397,34.87787 -6.10864,31.31994 1.77828,66.22056 14.9646,66.22056 6.75119,0 7.79394,-2.97411 7.35581,-20.97964 -0.45777,-18.81063 0.67605,-21.66068 10.96633,-27.56648 11.13148,-6.38859 11.74374,-6.22585 20.34605,5.40943 11.85236,16.03118 35.52176,25.71431 55.323,22.63266 12.19051,-1.89723 15.56474,-1.06201 15.56474,3.85259 0,7.51274 -30.23481,8.77672 -48.0373,2.00822 -6.17226,-2.3467 -11.98808,-3.50099 -12.924,-2.56507 -4.56046,4.56047 4.66453,22.9271 13.54871,26.97501 5.72894,2.61031 10.05723,8.1304 10.05723,12.82655 0,4.53428 3.84747,10.30323 8.54993,12.8199 9.54309,5.10731 9.9731,24.89279 0.60786,27.96954 -3.86562,1.27 -4.63061,-1.1791 -2.73159,-8.74539 1.99731,-7.95777 0.52961,-11.82592 -6.04485,-15.93173 -4.77538,-2.98228 -8.68255,-8.75531 -8.68255,-12.82891 0,-4.90899 -4.19882,-8.24628 -12.45178,-9.89689 -8.32452,-1.66488 -12.45179,-4.97718 -12.45179,-9.99301 0,-10.46033 -16.6314,-15.16342 -22.96961,-6.49544 -2.70842,3.704 -10.32182,6.76004 -16.91861,6.79121 -32.97101,0.15565 -42.4877,16.18296 -16.14482,27.18972 9.10549,3.80452 14.52708,8.90697 14.52708,13.67198 0,4.18123 3.72877,10.97671 8.28621,15.10111 8.0412,7.2772 8.90846,7.11209 29.32994,-5.58259 23.05162,-14.32964 24.64279,-14.92147 24.64279,-9.16559 0,2.15378 -5.60331,7.22589 -12.45179,11.2714 -19.87949,11.74311 -15.91762,28.87955 5.67827,24.5604 6.57894,-1.31582 16.1967,-2.39236 21.3727,-2.39236 z M 274.175,639.33873 c 2.53734,-7.61202 27.34911,-21.27222 30.21509,-16.635 1.4508,2.34749 -3.52485,8.02546 -11.05702,12.61777 -15.23621,9.28932 -21.34224,10.56969 -19.15807,4.01723 z m 107.15278,-35.06726 c 0,-3.45882 3.68942,-6.22589 8.30119,-6.22589 4.61177,0 8.30119,2.76707 8.30119,6.22589 0,3.45882 -3.68942,6.22589 -8.30119,6.22589 -4.61177,0 -8.30119,-2.76707 -8.30119,-6.22589 z m -127.44952,-9.0493 c -0.47101,-4.47384 -2.88654,-13.47407 -5.36789,-20.00051 l -4.51153,-11.86627 -8.36984,8.36981 c -6.0815,6.08153 -7.62722,11.32847 -5.65369,19.19164 4.05056,16.13881 25.55654,20.01235 23.90295,4.30533 z m 54.81409,-15.85428 c 0,-6.06871 -3.22323,-8.66922 -11.98513,-9.66964 -9.7417,-1.11228 -11.48981,-0.0776 -9.33884,5.52772 1.45544,3.7929 2.64629,8.74108 2.64629,10.99597 0,2.25489 4.20248,3.50294 9.33884,2.77347 6.12968,-0.87055 9.33884,-4.1789 9.33884,-9.62752 z m 143.19556,-5.51431 c 0,-15.31794 -41.56324,-71.27171 -52.9416,-71.27171 -4.28063,0 -3.65277,2.92003 2.47965,11.53218 4.51639,6.34274 12.69493,19.88406 18.17454,30.09182 15.80854,29.44935 21.46797,37.23732 27.05994,37.23732 2.87512,0 5.22747,-3.41532 5.22747,-7.58961 z"
       id="path4160"
       inkscape:connector-curvature="0" />
    <path
       style="fill:#ffffff;fill-opacity:1"
       d="m 313.89997,687.1822 c -4.86466,-1.08879 -7.35273,-4.45107 -6.72991,-9.09453 0.68613,-5.11552 3.0793,-8.03564 11.29549,-13.78261 10.07874,-7.04978 13.41036,-10.39428 13.41036,-13.46222 0,-1.95311 -0.50925,-2.59879 -2.04966,-2.59879 -2.65744,0 -5.56566,1.5274 -22.45034,11.79089 -21.38826,13.00103 -21.49293,13.02212 -29.22986,5.89047 -4.85438,-4.47462 -8.27014,-10.25431 -8.27014,-13.99364 0,-4.76906 -4.11266,-8.85517 -14.5,-14.40641 -11.34827,-6.06478 -14.19331,-8.48844 -15.06048,-12.82984 -0.50492,-2.52779 -0.0732,-3.57228 2.52724,-6.11471 4.19769,-4.10402 11.35112,-6.27482 24.16572,-7.33339 11.54341,-0.95357 16.45799,-2.50293 20.38004,-6.42499 1.39242,-1.39241 3.48952,-3.04429 4.66022,-3.67083 3.08078,-1.64878 9.3458,-1.30502 12.73825,0.69894 3.20152,1.89119 4.27526,3.70017 6.0173,10.13769 1.29387,4.78134 3.10386,6.04719 12.58491,8.80144 8.62967,2.50692 10.1587,3.81355 12.04027,10.28902 1.38628,4.77093 2.73556,6.70639 8.54635,12.25928 3.7951,3.62666 6.90018,7.39977 6.90018,8.3847 0,0.98493 -0.52968,4.66549 -1.17708,8.17901 -1.34482,7.29864 -0.56753,8.99705 3.63488,7.94232 3.93651,-0.988 6.53404,-6.06705 6.53846,-12.78485 0.005,-7.94108 -1.22444,-10.45975 -8.45356,-17.3151 -5.53202,-5.246 -6.40988,-6.58808 -6.98564,-10.67962 -0.81197,-5.77025 -3.30632,-9.04513 -10.29386,-13.51501 -8.24283,-5.27288 -15.38021,-17.41565 -14.08075,-23.9555 0.51375,-2.58554 4.38771,-2.29071 15.31755,1.16572 8.16135,2.58092 10.39776,2.85258 24,2.91528 13.39339,0.0617 15.37488,-0.1505 18.5,-1.9815 4.14042,-2.42586 4.88257,-5.34068 2.0195,-7.93172 -1.92584,-1.74286 -2.77398,-1.7918 -12.29402,-0.70933 -23.37905,2.65829 -41.87708,-4.75856 -57.28199,-22.96741 -5.01308,-5.92554 -7.8127,-8.43024 -9.66782,-8.6494 -4.67556,-0.55235 -17.10174,6.99325 -20.03567,12.16636 -0.75812,1.33672 -1.40762,8.61464 -1.72746,19.35684 -0.56745,19.0589 -1.09593,20.61862 -6.98624,20.61862 -6.17285,0 -11.56678,-8.29184 -14.767,-22.70061 -2.40185,-10.81418 -2.10934,-32.51183 0.60844,-45.13272 4.68393,-21.75128 8.54934,-28.92955 17.95161,-33.33707 5.3892,-2.5263 6.42457,-2.65614 20.18065,-2.53064 10.42598,0.0951 20.65357,1.02337 36.4014,3.3038 49.48383,7.1657 58.32729,10.56691 68.30652,26.27076 11.17466,17.58504 30.96636,51.86408 32.49169,56.27531 3.22363,9.32262 1.87975,15.18487 -6.07899,26.51784 -8.92698,12.71171 -47.52991,50.15791 -66.17997,64.1969 -9.10815,6.85624 -13.55381,8.78772 -20.2491,8.79752 -2.09464,0.003 -7.04464,0.46509 -11,1.02672 -3.95535,0.56163 -8.31655,1.17275 -9.69155,1.35806 -1.375,0.1853 -4.06417,-0.0132 -5.97594,-0.44105 z m -27.02406,-47.6554 c 12.38688,-6.64654 19.0929,-12.9923 17.66426,-16.71529 -0.93954,-2.44841 -4.58798,-1.87068 -12.68178,2.00818 -12.4935,5.98734 -20.89503,14.41495 -17.93089,17.98653 1.56711,1.88825 4.88252,1.04856 12.94841,-3.27942 z m 109.18438,-30.94961 c 3.71593,-3.36288 1.6189,-9.08964 -3.95008,-10.78723 -3.06483,-0.93424 -9.00176,1.15107 -10.32701,3.62732 -3.72033,6.9515 8.0081,12.83327 14.27709,7.15991 z"
       id="path4808"
       inkscape:connector-curvature="0" />
    <path
       style="fill:#ffffff;fill-opacity:1"
       d="m 291.468,587.39306 c -1.20141,-1.94393 -4.39185,-15.6304 -3.85139,-16.52185 0.29105,-0.48007 3.85586,-0.65936 7.92181,-0.39842 9.07373,0.58232 12.33749,2.91947 12.33749,8.83479 0,5.8882 -2.58422,8.20645 -9.72367,8.72287 -3.67352,0.26572 -6.27968,0.0172 -6.68424,-0.63739 z"
       id="path4810"
       inkscape:connector-curvature="0" />
    <path
       style="fill:#ffffff;fill-opacity:1"
       d="m 239.37591,602.38349 c -3.99876,-2.47001 -6.10934,-4.96021 -7.96186,-9.39392 -2.07766,-4.97253 -1.94082,-11.5791 0.31576,-15.24552 2.98125,-4.84382 11.3701,-13.68353 12.15332,-12.80651 2.87321,3.2173 10.45914,30.83037 9.33661,33.98559 -1.95519,5.49566 -8.07314,7.02489 -13.84383,3.46036 z"
       id="path4812"
       inkscape:connector-curvature="0" />
  </g>
</svg>
