<?xml version="1.0" encoding="UTF-8" standalone="no"?>
<!-- Created with Inkscape (http://www.inkscape.org/) -->

<svg
   xmlns:dc="http://purl.org/dc/elements/1.1/"
   xmlns:cc="http://creativecommons.org/ns#"
   xmlns:rdf="http://www.w3.org/1999/02/22-rdf-syntax-ns#"
   xmlns:svg="http://www.w3.org/2000/svg"
   xmlns="http://www.w3.org/2000/svg"
   xmlns:sodipodi="http://sodipodi.sourceforge.net/DTD/sodipodi-0.dtd"
   xmlns:inkscape="http://www.inkscape.org/namespaces/inkscape"
   width="210mm"
   height="297mm"
   viewBox="0 0 744.09448819 1052.3622047"
   id="svg2"
   version="1.1"
   inkscape:version="0.91 r13725"
   inkscape:export-filename="/Users/ryan/Personal/proj/dealers-choice/front-end/src/images/rps/scissors.png"
   inkscape:export-xdpi="68.883629"
   inkscape:export-ydpi="68.883629"
   sodipodi:docname="scissors.svg">
  <defs
     id="defs4" />
  <sodipodi:namedview
     id="base"
     pagecolor="#ffffff"
     bordercolor="#666666"
     borderopacity="1.0"
     inkscape:pageopacity="0.0"
     inkscape:pageshadow="2"
     inkscape:zoom="1"
     inkscape:cx="367.45537"
     inkscape:cy="775.86287"
     inkscape:document-units="px"
     inkscape:current-layer="layer1"
     showgrid="false"
     inkscape:window-width="1596"
     inkscape:window-height="1005"
     inkscape:window-x="84"
     inkscape:window-y="1"
     inkscape:window-maximized="1" />
  <metadata
     id="metadata7">
    <rdf:RDF>
      <cc:Work
         rdf:about="">
        <dc:format>image/svg+xml</dc:format>
        <dc:type
           rdf:resource="http://purl.org/dc/dcmitype/StillImage" />
        <dc:title></dc:title>
      </cc:Work>
    </rdf:RDF>
  </metadata>
  <g
     inkscape:label="Layer 1"
     inkscape:groupmode="layer"
     id="layer1">
    <path
       style="fill:#000000"
       d="m 216.23763,329.57259 c -14.41884,-10.09935 -11.28148,-23.41018 11.35563,-48.17875 l 20.47473,-22.40266 -26.84723,14.25593 c -30.32376,16.102 -45.13415,15.89299 -49.29763,-0.69567 -3.71584,-14.80513 7.44576,-26.66175 52.84798,-56.13887 47.14297,-30.60726 46.02636,-29.62627 57.59632,-50.60289 12.42317,-22.52358 40.20383,-31.52198 86.97699,-28.17258 l 32.97862,2.36157 11.12957,-16.8179 c 6.12123,-9.24985 11.12955,-19.5605 11.12955,-22.9126 0,-7.858106 27.95569,-26.90596 39.4887,-26.90596 7.12312,0 13.02951,8.252776 30.09934,42.05665 25.72169,50.93742 29.82203,71.91866 16.48352,84.34534 -5.07199,4.72532 -14.22274,9.68985 -20.33495,11.03231 -10.73117,2.35697 -22.79347,13.60736 -78.10611,72.84898 -18.37087,19.67578 -28.78126,27.69584 -35.95048,27.69584 -5.55032,0 -16.4002,5.53917 -24.11094,12.30927 -16.60023,14.5752 -17.75939,14.72733 -31.26589,4.10308 -5.73785,-4.51339 -14.00946,-8.20617 -18.38131,-8.20617 -4.37188,0 -11.23405,-3.63009 -15.24929,-8.06688 -7.20688,-7.9635 -7.59167,-7.85836 -30.02551,8.20618 -25.48789,18.25149 -28.1361,18.89012 -40.99161,9.88578 z m 55.19392,-36.52808 c 26.70578,-25.45539 30.5342,-30.63422 22.74876,-30.77317 -5.1484,-0.0918 -10.42344,-2.93649 -11.72232,-6.32132 -1.86231,-4.8531 -6.4444,-2.90121 -21.67228,9.23194 -10.62086,8.46242 -25.40364,22.33056 -32.85067,30.8181 -11.14797,12.70563 -12.64427,16.51115 -8.46972,21.54121 9.29965,11.20537 19.6087,6.3457 51.96623,-24.49676 z m 81.37623,16.49561 c 9.11402,-9.66372 15.82582,-13.45202 21.29769,-12.02106 5.98519,1.56512 14.09202,-4.78884 32.31059,-25.32426 13.37641,-15.07749 34.14385,-37.56855 46.14985,-49.98004 l 21.82919,-22.56647 -9.51991,-10.46123 c -5.23592,-5.75367 -16.52601,-16.91642 -25.08907,-24.80612 L 424.2169,150.036 377.28401,148.81747 c -62.20935,-1.61521 -74.31144,2.50067 -88.79251,30.19812 -10.87396,20.79826 -10.90567,21.11551 -4.79392,47.90971 3.93764,17.26264 8.19566,26.9728 11.82789,26.9728 9.14652,0 15.01829,-15.66207 12.17689,-32.48008 -2.59446,-15.35657 -2.52573,-15.45002 10.97475,-14.91518 7.47205,0.29584 18.70211,3.93339 24.95568,8.08303 8.21773,5.45306 15.89605,6.93771 27.69502,5.35515 17.73523,-2.37881 25.08185,2.45698 13.30673,8.75882 -8.69953,4.65586 -39.21338,-0.11113 -48.1415,-7.52083 -9.54243,-7.9195 -17.4465,-2.22032 -19.33315,13.94003 -0.9423,8.0718 -1.44456,14.67598 -1.11607,14.67598 0.32866,0 6.35215,-2.87093 13.38592,-6.37982 9.75448,-4.86619 14.7714,-5.31866 21.1458,-1.9072 4.59647,2.45996 8.35721,6.25404 8.35721,8.43135 0,2.17731 2.76959,3.95875 6.15464,3.95875 7.98764,0 23.56645,15.57882 20.51543,20.51545 -1.29296,2.09208 -6.09169,0.0629 -10.66385,-4.50923 -4.57209,-4.5721 -10.4687,-7.59436 -13.1035,-6.71608 -2.63479,0.87825 -7.61976,-1.89708 -11.07768,-6.16741 -5.37901,-6.64286 -8.05759,-7.09743 -18.54575,-3.14764 -13.95673,5.2561 -43.03181,31.97447 -43.03181,39.54389 0,2.76584 2.89783,7.92663 6.43961,11.46842 7.88884,7.88888 18.66395,3.17911 33.75319,-14.75343 14.06797,-16.71886 33.40575,-29.23677 19.80964,-11.41135 -9.16434,12.01504 -27.25208,33.74174 -23.0666,38.78492 7.48852,9.02311 11.91525,7.70209 26.69171,-7.96552 z M 224.41684,261.70677 c 9.66782,-4.90218 23.64291,-14.20374 31.05572,-20.67013 7.41275,-6.46638 15.29512,-11.75707 17.51628,-11.75707 4.15105,0 1.0046,-20.01236 -4.03169,-25.64282 -1.51317,-1.6917 -10.26182,2.00107 -19.44142,8.20617 -9.1796,6.2051 -27.19588,18.33031 -40.03621,26.94485 -24.23161,16.25698 -29.48956,23.16666 -25.51343,33.52831 2.61951,6.82631 9.75704,4.95427 40.45075,-10.60931 z m 249.90525,-96.81151 c -21.24319,-32.31613 -36.15231,-47.76762 -43.40533,-44.98433 -14.13137,5.42268 -10.16217,14.3194 19.12141,42.85918 33.37813,32.53035 44.93588,33.5418 24.28392,2.12515 z"
       id="path4216"
       inkscape:connector-curvature="0"
       sodipodi:nodetypes="sscssssscssssssssssssssscsssssscsscsscssssscsssssssssssssssssssssssssssssssss" />
  </g>
</svg>
