<?xml version="1.0" encoding="UTF-8" standalone="no"?>
<!-- Created with Inkscape (http://www.inkscape.org/) -->

<svg
   xmlns:dc="http://purl.org/dc/elements/1.1/"
   xmlns:cc="http://creativecommons.org/ns#"
   xmlns:rdf="http://www.w3.org/1999/02/22-rdf-syntax-ns#"
   xmlns:svg="http://www.w3.org/2000/svg"
   xmlns="http://www.w3.org/2000/svg"
   xmlns:sodipodi="http://sodipodi.sourceforge.net/DTD/sodipodi-0.dtd"
   xmlns:inkscape="http://www.inkscape.org/namespaces/inkscape"
   width="210mm"
   height="297mm"
   viewBox="0 0 744.09448819 1052.3622047"
   id="svg2"
   version="1.1"
   inkscape:version="0.91 r13725"
   inkscape:export-filename="/Users/ryan/Personal/proj/dealers-choice/front-end/src/images/rps/scissors-hover.png"
   inkscape:export-xdpi="68.883629"
   inkscape:export-ydpi="68.883629"
   sodipodi:docname="scissors-hover.svg">
  <defs
     id="defs4" />
  <sodipodi:namedview
     id="base"
     pagecolor="#ffffff"
     bordercolor="#666666"
     borderopacity="1.0"
     inkscape:pageopacity="0.0"
     inkscape:pageshadow="2"
     inkscape:zoom="1"
     inkscape:cx="367.45537"
     inkscape:cy="775.86287"
     inkscape:document-units="px"
     inkscape:current-layer="layer1"
     showgrid="false"
     inkscape:window-width="1596"
     inkscape:window-height="1005"
     inkscape:window-x="84"
     inkscape:window-y="1"
     inkscape:window-maximized="1" />
  <metadata
     id="metadata7">
    <rdf:RDF>
      <cc:Work
         rdf:about="">
        <dc:format>image/svg+xml</dc:format>
        <dc:type
           rdf:resource="http://purl.org/dc/dcmitype/StillImage" />
        <dc:title></dc:title>
      </cc:Work>
    </rdf:RDF>
  </metadata>
  <g
     inkscape:label="Layer 1"
     inkscape:groupmode="layer"
     id="layer1">
    <path
       style="fill:#048ebe;fill-opacity:1"
       d="m 216.23763,329.57259 c -14.41884,-10.09935 -11.28148,-23.41018 11.35563,-48.17875 l 20.47473,-22.40266 -26.84723,14.25593 c -30.32376,16.102 -45.13415,15.89299 -49.29763,-0.69567 -3.71584,-14.80513 7.44576,-26.66175 52.84798,-56.13887 47.14297,-30.60726 46.02636,-29.62627 57.59632,-50.60289 12.42317,-22.52358 40.20383,-31.52198 86.97699,-28.17258 l 32.97862,2.36157 11.12957,-16.8179 c 6.12123,-9.24985 11.12955,-19.5605 11.12955,-22.9126 0,-7.858106 27.95569,-26.90596 39.4887,-26.90596 7.12312,0 13.02951,8.252776 30.09934,42.05665 25.72169,50.93742 29.82203,71.91866 16.48352,84.34534 -5.07199,4.72532 -14.22274,9.68985 -20.33495,11.03231 -10.73117,2.35697 -22.79347,13.60736 -78.10611,72.84898 -18.37087,19.67578 -28.78126,27.69584 -35.95048,27.69584 -5.55032,0 -16.4002,5.53917 -24.11094,12.30927 -16.60023,14.5752 -17.75939,14.72733 -31.26589,4.10308 -5.73785,-4.51339 -14.00946,-8.20617 -18.38131,-8.20617 -4.37188,0 -11.23405,-3.63009 -15.24929,-8.06688 -7.20688,-7.9635 -7.59167,-7.85836 -30.02551,8.20618 -25.48789,18.25149 -28.1361,18.89012 -40.99161,9.88578 z m 55.19392,-36.52808 c 26.70578,-25.45539 30.5342,-30.63422 22.74876,-30.77317 -5.1484,-0.0918 -10.42344,-2.93649 -11.72232,-6.32132 -1.86231,-4.8531 -6.4444,-2.90121 -21.67228,9.23194 -10.62086,8.46242 -25.40364,22.33056 -32.85067,30.8181 -11.14797,12.70563 -12.64427,16.51115 -8.46972,21.54121 9.29965,11.20537 19.6087,6.3457 51.96623,-24.49676 z m 81.37623,16.49561 c 9.11402,-9.66372 15.82582,-13.45202 21.29769,-12.02106 5.98519,1.56512 14.09202,-4.78884 32.31059,-25.32426 13.37641,-15.07749 34.14385,-37.56855 46.14985,-49.98004 l 21.82919,-22.56647 -9.51991,-10.46123 c -5.23592,-5.75367 -16.52601,-16.91642 -25.08907,-24.80612 L 424.2169,150.036 377.28401,148.81747 c -62.20935,-1.61521 -74.31144,2.50067 -88.79251,30.19812 -10.87396,20.79826 -10.90567,21.11551 -4.79392,47.90971 3.93764,17.26264 8.19566,26.9728 11.82789,26.9728 9.14652,0 15.01829,-15.66207 12.17689,-32.48008 -2.59446,-15.35657 -2.52573,-15.45002 10.97475,-14.91518 7.47205,0.29584 18.70211,3.93339 24.95568,8.08303 8.21773,5.45306 15.89605,6.93771 27.69502,5.35515 17.73523,-2.37881 25.08185,2.45698 13.30673,8.75882 -8.69953,4.65586 -39.21338,-0.11113 -48.1415,-7.52083 -9.54243,-7.9195 -17.4465,-2.22032 -19.33315,13.94003 -0.9423,8.0718 -1.44456,14.67598 -1.11607,14.67598 0.32866,0 6.35215,-2.87093 13.38592,-6.37982 9.75448,-4.86619 14.7714,-5.31866 21.1458,-1.9072 4.59647,2.45996 8.35721,6.25404 8.35721,8.43135 0,2.17731 2.76959,3.95875 6.15464,3.95875 7.98764,0 23.56645,15.57882 20.51543,20.51545 -1.29296,2.09208 -6.09169,0.0629 -10.66385,-4.50923 -4.57209,-4.5721 -10.4687,-7.59436 -13.1035,-6.71608 -2.63479,0.87825 -7.61976,-1.89708 -11.07768,-6.16741 -5.37901,-6.64286 -8.05759,-7.09743 -18.54575,-3.14764 -13.95673,5.2561 -43.03181,31.97447 -43.03181,39.54389 0,2.76584 2.89783,7.92663 6.43961,11.46842 7.88884,7.88888 18.66395,3.17911 33.75319,-14.75343 14.06797,-16.71886 33.40575,-29.23677 19.80964,-11.41135 -9.16434,12.01504 -27.25208,33.74174 -23.0666,38.78492 7.48852,9.02311 11.91525,7.70209 26.69171,-7.96552 z M 224.41684,261.70677 c 9.66782,-4.90218 23.64291,-14.20374 31.05572,-20.67013 7.41275,-6.46638 15.29512,-11.75707 17.51628,-11.75707 4.15105,0 1.0046,-20.01236 -4.03169,-25.64282 -1.51317,-1.6917 -10.26182,2.00107 -19.44142,8.20617 -9.1796,6.2051 -27.19588,18.33031 -40.03621,26.94485 -24.23161,16.25698 -29.48956,23.16666 -25.51343,33.52831 2.61951,6.82631 9.75704,4.95427 40.45075,-10.60931 z m 249.90525,-96.81151 c -21.24319,-32.31613 -36.15231,-47.76762 -43.40533,-44.98433 -14.13137,5.42268 -10.16217,14.3194 19.12141,42.85918 33.37813,32.53035 44.93588,33.5418 24.28392,2.12515 z"
       id="path4216"
       inkscape:connector-curvature="0"
       sodipodi:nodetypes="sscssssscssssssssssssssscsssssscsscsscssssscsssssssssssssssssssssssssssssssss" />
    <path
       style="fill:#ffffff;fill-opacity:1"
       d="m 329.09174,319.66297 c -1.50619,-1.50619 -2.63527,-3.7568 -2.6338,-5.25 0.003,-3.4255 5.07012,-11.70809 15.90684,-26.00283 11.18727,-14.75714 12.60674,-16.99479 11.48924,-18.11161 -1.98752,-1.98632 -8.61031,3.15376 -23.89865,18.54822 -20.62826,20.77146 -25.33408,22.92721 -33.80757,15.48739 -1.83934,-1.61496 -4.15481,-4.73379 -5.14549,-6.93073 -1.79507,-3.98075 -1.79256,-4.00917 0.73496,-8.29925 3.08102,-5.22956 17.8184,-19.72859 26.7181,-26.28596 8.92452,-6.57566 17.49028,-10.51711 22.85843,-10.51808 3.85644,-7e-4 4.83544,0.50571 8.5,4.39681 4.74125,5.03434 7.39522,6.6024 11.1747,6.6024 3.78603,0 8.40793,2.42086 14.42074,7.5533 10.84934,9.26084 15.21792,3.41528 5.51383,-7.378 -5.58344,-6.21013 -9.99982,-9.02954 -15.65194,-9.99217 -3.64994,-0.62163 -4.57288,-1.27967 -5.98238,-4.2653 -2.53565,-5.37105 -8.79568,-9.21515 -15.83597,-9.7244 -5.3759,-0.38885 -6.68292,-0.0202 -16.41913,4.63065 -12.19594,5.82587 -11.42825,6.43172 -9.49181,-7.49079 2.39841,-17.24395 8.09714,-22.09458 18.01305,-15.33234 8.84231,6.03009 30.84302,10.8998 42.60472,9.43027 6.14659,-0.76797 11.65397,-4.01965 12.10644,-7.14792 0.53871,-3.72445 -2.5893,-4.37144 -19.66042,-4.06653 l -15.85704,0.28323 -9.92278,-5.16462 c -11.88677,-6.18684 -19.56535,-8.33538 -29.78953,-8.33538 -6.99301,0 -7.70183,0.18795 -8.48544,2.25 -0.47027,1.2375 -0.48595,4.5 -0.0349,7.25 1.1574,7.05589 1.1147,21.32871 -0.0766,25.61763 -1.455,5.23811 -5.11817,10.20556 -8.36899,11.34882 -2.46915,0.86835 -3.11778,0.65033 -5.17272,-1.73868 -4.67638,-5.43661 -12.44226,-35.48584 -12.44226,-48.14396 0,-6.07217 0.46822,-7.45574 6.65659,-19.66983 10.28238,-20.29456 17.64438,-27.0767 34.34341,-31.63837 5.83265,-1.59331 11.40058,-1.76429 54.23187,-1.6654 l 47.73187,0.11021 9.73707,8.88979 c 11.83587,10.80596 38.05348,37.06216 39.26142,39.31921 0.68718,1.28402 -3.09256,5.78342 -17.72622,21.1013 -10.2298,10.7081 -27.40532,29.13943 -38.16782,40.95849 -30.93453,33.97141 -34.4637,36.93648 -43.8733,36.86069 -6.64172,-0.0535 -10.16582,2.14965 -22.63337,14.14962 -4.98383,4.79692 -10.04443,9.23441 -11.24578,9.86108 -3.52585,1.83923 -6.85861,1.3238 -9.67937,-1.49696 z"
       id="path4237"
       inkscape:connector-curvature="0" />
    <path
       style="fill:#ffffff;fill-opacity:1"
       d="m 185.51658,273.87309 c -0.74864,-0.90206 -1.5596,-3.76268 -1.80213,-6.35694 -0.84851,-9.0762 3.54979,-13.11121 43.74092,-40.12801 24.76812,-16.64934 33.32191,-21.84601 38.69801,-23.51019 1.79454,-0.5555 2.51148,-0.0745 3.90577,2.6205 2.31686,4.47816 4.36993,12.48442 4.38435,17.09739 0.0101,3.23749 -0.45218,4.04735 -3.13966,5.5 -2.84633,1.53852 -6.2863,4.05473 -23.6277,17.28277 -9.03896,6.89492 -23.15054,15.0422 -37.72077,21.77796 -15.10922,6.98494 -22.04052,8.60625 -24.43879,5.71652 z"
       id="path4239"
       inkscape:connector-curvature="0" />
    <path
       style="fill:#ffffff;fill-opacity:1"
       d="m 221.77402,318.95254 c -6.98112,-6.39771 -4.40247,-11.72331 15.11004,-31.2062 18.52702,-18.4989 37.35973,-33.44701 42.13898,-33.44701 1.20025,0 2.65523,1.04798 3.40812,2.45476 1.46564,2.73858 6.5868,5.53716 10.17534,5.56055 1.29188,0.008 2.98829,0.42002 3.7698,0.91466 2.32343,1.47056 -0.66456,5.14355 -18.18813,22.35779 -35.1518,34.53127 -47.30117,41.71687 -56.41415,33.36545 z"
       id="path4241"
       inkscape:connector-curvature="0" />
  </g>
</svg>
